<?xml version="1.0" standalone="no"?>
<!DOCTYPE svg PUBLIC "-//W3C//DTD SVG 1.1//EN" "http://www.w3.org/Graphics/SVG/1.1/DTD/svg11.dtd" >
<svg xmlns="http://www.w3.org/2000/svg">
<metadata></metadata>
<defs>
<font id="omnes_attmedium_italic" horiz-adv-x="1273" >
<font-face units-per-em="2048" ascent="1434" descent="-614" />
<missing-glyph horiz-adv-x="348" />
<glyph unicode="&#xfb01;" horiz-adv-x="1267" d="M119 819q2 18 10 53q10 55 21 93l4 20h202l23 96q69 340 350 340q131 0 189 -61q32 -32 32 -76q0 -27 -14.5 -51t-29.5 -35.5t-19 -7.5q-21 29 -61.5 48t-86.5 19q-65 0 -107 -44.5t-63 -143.5l-18 -84h264q-4 -18 -12 -51l-19 -94l-4 -21h-258l-172 -819h-203l175 819 h-203zM836 227l161 758h201l-160 -760q-17 -78 1.5 -110.5t86.5 -36.5l1 -5q1 -5 -2 -14t-7 -19t-14.5 -20.5t-23 -18.5t-34 -13.5t-47.5 -5.5q-110 0 -149 64t-14 181zM1044 1290q0 56 34.5 93.5t92.5 37.5t89.5 -24.5t31.5 -67.5q0 -57 -34.5 -95t-92.5 -38t-89.5 25.5 t-31.5 68.5z" />
<glyph unicode="&#xfb02;" horiz-adv-x="1267" d="M119 819q2 18 10 53q10 55 21 93l4 20h202l23 96q69 340 350 340q131 0 189 -61q32 -32 32 -76q0 -27 -14.5 -51t-29.5 -35.5t-19 -7.5q-21 29 -61.5 48t-86.5 19q-65 0 -107 -44.5t-63 -143.5l-18 -84h264q-4 -18 -12 -51l-19 -94l-4 -21h-258l-172 -819h-203l175 819 h-203zM834 227l249 1172h201l-248 -1174q-17 -78 1.5 -110.5t86.5 -36.5l1 -5q1 -5 -2 -14t-7 -19t-14.5 -20.5t-23 -18.5t-34 -13.5t-47.5 -5.5q-110 0 -149 64t-14 181z" />
<glyph horiz-adv-x="2048" />
<glyph horiz-adv-x="2048" />
<glyph unicode="&#xd;" horiz-adv-x="2048" />
<glyph unicode=" "  horiz-adv-x="348" />
<glyph unicode="&#x09;" horiz-adv-x="348" />
<glyph unicode="&#xa0;" horiz-adv-x="348" />
<glyph unicode="!" horiz-adv-x="602" d="M92 72q0 91 41 129q32 32 100 32q57 0 87 -22.5t30 -63.5q0 -89 -43 -129q-32 -32 -98 -32q-57 0 -87 22.5t-30 63.5zM231 461l115 868h266l-260 -887q-11 -32 -24 -45.5t-35 -13.5q-38 0 -51 16.5t-11 61.5z" />
<glyph unicode="&#x22;" horiz-adv-x="870" d="M270 838l60 489h243l-176 -502q-11 -32 -24 -45.5t-35 -13.5q-40 0 -55.5 14.5t-12.5 57.5zM614 838l62 489h244l-181 -502q-11 -32 -24.5 -45.5t-36.5 -13.5q-39 0 -53.5 15t-10.5 57z" />
<glyph unicode="#" horiz-adv-x="1378" d="M43 334q4 18 12 51l19 90l4 21h278l103 333h-258q4 19 10 52l18 90l7 20h272l104 340q4 8 29 8q38 0 70 -25t32 -77q0 -27 -16 -80l-51 -166h301l104 340q0 8 27 8q39 0 70.5 -25t31.5 -77q0 -27 -16 -80l-51 -166h264q-4 -18 -12 -51l-19 -90l-4 -21h-278l-103 -333h258 q-4 -19 -10 -52l-18 -90l-7 -20h-274l-102 -340q0 -8 -29 -8q-37 0 -68.5 25t-31.5 77q0 37 14 80l51 166h-299l-104 -340q-4 -8 -29 -8q-38 0 -70 25t-32 77q0 30 16 80l51 166h-264zM516 492h313l105 342h-313z" />
<glyph unicode="$" horiz-adv-x="1181" d="M51 289q0 37 23.5 63.5t46.5 34.5t26 2q41 -85 116.5 -143t170.5 -82l94 440q-66 29 -111.5 56t-92.5 69.5t-71 101.5t-24 134q0 158 120 264t331 110l41 191h178l-45 -207q151 -29 242 -117q65 -65 65 -139q0 -40 -24 -67.5t-48 -36t-28 -2.5q-38 74 -101.5 125.5 t-148.5 72.5l-92 -432q42 -18 70.5 -31t66 -33.5t62 -39.5t51.5 -46.5t42.5 -56.5t25.5 -66.5t10 -80.5q0 -174 -123 -279.5t-359 -105.5l-39 -201h-178l43 215q-169 35 -262 131q-78 78 -78 156zM436 979q0 -63 35 -106t104 -80l80 381q-101 -9 -160 -63.5t-59 -131.5z M590 152q119 6 178 61.5t59 146.5q0 61 -39.5 103.5t-113.5 77.5z" />
<glyph unicode="%" horiz-adv-x="1585" d="M92 55q0 26 15 49t55 60l1323 1190q5 5 24.5 -3.5t38.5 -28.5t19 -44q0 -26 -15.5 -48.5t-56.5 -60.5l-1323 -1189q-5 -5 -24 3t-37.5 28t-18.5 44zM184 987q0 149 96.5 254t249.5 105q128 0 209.5 -78t81.5 -205q0 -147 -97 -251.5t-251 -104.5q-127 0 -208 77.5 t-81 202.5zM328 995q0 -69 45 -115t110 -46q82 0 137.5 65.5t55.5 157.5q0 69 -44.5 115.5t-109.5 46.5q-82 0 -138 -66t-56 -158zM838 270q0 149 97 254t251 105q128 0 208.5 -78t80.5 -205q0 -147 -97 -251.5t-250 -104.5q-128 0 -209 77.5t-81 202.5zM983 279 q0 -68 45 -115t109 -47q82 0 137 65.5t55 157.5q0 69 -43.5 115.5t-109.5 46.5q-82 0 -137.5 -65.5t-55.5 -157.5z" />
<glyph unicode="&#x26;" horiz-adv-x="1443" d="M63 340q0 171 105 272t301 154q-66 102 -66 215q0 100 48 184t138.5 135.5t205.5 51.5q142 0 234.5 -82t92.5 -213q0 -276 -377 -355l259 -325q73 84 120.5 185t61.5 194h188q-40 -152 -101 -275t-159 -225l10 -12q54 -67 97.5 -95.5t111.5 -29.5q2 0 3 -13.5t-2.5 -32.5 t-14 -38.5t-37 -33t-65.5 -13.5q-72 0 -119.5 32t-108.5 107l-12 14q-200 -166 -467 -166q-210 0 -328.5 101t-118.5 264zM254 358q0 -96 70.5 -159.5t207.5 -63.5q108 0 188 30t154 95l-317 393q-303 -71 -303 -295zM592 995q0 -55 14.5 -96.5t48.5 -87.5q155 31 224 82 t69 156q0 68 -45.5 109.5t-118.5 41.5q-85 0 -138.5 -62t-53.5 -143z" />
<glyph unicode="'" horiz-adv-x="524" d="M270 838l60 489h243l-176 -502q-11 -32 -24 -45.5t-35 -13.5q-40 0 -55.5 14.5t-12.5 57.5z" />
<glyph unicode="(" horiz-adv-x="837" d="M104 264q0 240 93.5 472.5t259.5 398.5q200 200 399 200q47 0 74.5 -22.5t27.5 -63.5q0 -18 -8 -36.5t-16 -28.5t-12 -10q-179 -12 -328 -164q-137 -137 -211 -341t-74 -409q0 -280 154 -434q66 -63 145 -86q4 -2 11.5 -20.5t7.5 -36.5q0 -41 -26.5 -67t-74.5 -26 q-111 0 -223 109q-91 91 -145 237.5t-54 327.5z" />
<glyph unicode=")" horiz-adv-x="837" d="M-129 -322q0 18 8 36.5t16.5 29.5t12.5 12q175 9 328 162q137 137 209.5 340t72.5 410q0 280 -151 434q-64 61 -146 88q-4 2 -11 19.5t-7 35.5q0 41 26 66.5t74 25.5q115 0 223 -108q91 -92 145 -237.5t54 -327.5q0 -240 -93 -472.5t-259 -398.5q-201 -201 -402 -201 q-45 0 -72.5 23t-27.5 63z" />
<glyph unicode="*" horiz-adv-x="872" d="M190.5 1047q-7.5 16 2.5 45l2 8q6 25 23.5 34t53.5 3l201 -52l14 201q3 37 17 50.5t41 13.5h8q27 0 41.5 -13.5t17.5 -50.5l13 -201l198 52q37 6 54.5 -2.5t25.5 -34.5l2 -8q10 -27 2 -44.5t-43 -31.5l-188 -76l110 -176q32 -58 -12 -86l-6 -4q-17 -16 -38.5 -13.5 t-47.5 29.5l-135 162l-133 -162q-24 -27 -44 -29t-40 13l-8 4q-47 26 -11 86l111 178l-191 74q-33 15 -40.5 31z" />
<glyph unicode="+" horiz-adv-x="1171" d="M121 512q0 20 9 47.5t22 40.5q23 23 69 23h307l66 305q17 86 82 86h20q37 0 57 -22.5t11 -67.5l-66 -301h293q80 0 80 -54q0 -21 -8 -48t-21 -40q-25 -22 -71 -22h-305l-70 -322q-19 -86 -82 -86h-22q-37 0 -56.5 22t-9.5 68l68 318h-291q-39 0 -60.5 14t-21.5 39z" />
<glyph unicode="," horiz-adv-x="528" d="M-78 -201l217 443q1 3 19.5 3.5t44.5 -4t51 -14t43 -29.5t18 -48q0 -31 -12.5 -57t-44.5 -64l-242 -289q-14 -9 -38.5 -4.5t-44 24t-11.5 39.5z" />
<glyph unicode="-" horiz-adv-x="874" d="M98 406q7 30 17 77l6 29l16 80h637q-6 -33 -16 -80l-6 -29l-17 -77h-637z" />
<glyph unicode="." horiz-adv-x="524" d="M51 72q0 89 43 129q32 32 99 32q116 0 116 -86q0 -91 -41 -129q-32 -32 -100 -32q-57 0 -87 22.5t-30 63.5z" />
<glyph unicode="/" horiz-adv-x="763" d="M-186 -414l911 1749h203q-74 -149 -97 -192l-815 -1557h-202z" />
<glyph unicode="0" horiz-adv-x="1370" d="M147 457q0 135 52 338q30 127 76 224t116.5 173.5t172.5 117t233 40.5q238 0 368.5 -133.5t130.5 -350.5q0 -126 -51 -338q-30 -126 -76 -222.5t-116.5 -173.5t-173 -118t-232.5 -41q-238 0 -369 134t-131 350zM358 459q0 -140 81.5 -226t222.5 -86q70 0 126 21t94.5 55 t69 87t49 105.5t35.5 121.5q49 195 49 327q0 140 -82 226t-221 86q-70 0 -126.5 -21t-95 -55t-69 -86.5t-49 -105t-34.5 -120.5q-50 -198 -50 -329z" />
<glyph unicode="1" horiz-adv-x="819" d="M207 1100q0 25 8 47.5t19 37.5t23 25.5t20.5 15t9.5 3.5q40 -49 127 -49q64 0 114.5 43.5t71.5 111.5h68q99 0 75 -102l-260 -1233h-209l218 1034q-56 -53 -136 -53q-82 0 -118 39q-31 28 -31 80z" />
<glyph unicode="2" horiz-adv-x="1165" d="M0 0q15 71 31 145q24 111 55.5 188t87.5 132q70 71 168.5 117t245.5 92q70 25 113.5 41.5t90 38.5t72.5 42.5t49 48t32 59.5t9 73q0 89 -69.5 144t-190.5 55q-225 0 -338 -228q-3 -6 -31 0.5t-56.5 33t-28.5 69.5q0 80 79 159q142 142 381 142q213 0 337 -101t124 -268 q0 -83 -23.5 -149t-62 -112.5t-106 -87t-136.5 -68.5t-174 -62q-146 -45 -220 -79.5t-124 -84.5q-64 -67 -75 -164h776q-7 -27 -17 -72l-20 -104h-979z" />
<glyph unicode="3" horiz-adv-x="1187" d="M31 272q0 36 14 63t33 39.5t39.5 21t33.5 6.5t15 -3q22 -122 112 -188t240 -66q153 0 234.5 76t81.5 189q0 94 -68.5 148t-196.5 54h-176l13 56q2 15 10 52l8 36l4 20h186q318 0 318 219q1 83 -72 135t-184 52q-113 0 -199 -51t-137 -134q-3 -7 -30 -0.5t-54 31t-27 62.5 q0 58 60 118q141 144 397 144q205 0 331 -86.5t126 -247.5q0 -126 -77 -219t-228 -117q102 -36 154 -110.5t52 -170.5q0 -62 -16 -120t-55.5 -114.5t-98.5 -98.5t-152.5 -67.5t-209.5 -25.5q-134 0 -238 36.5t-161 94.5q-82 79 -82 166z" />
<glyph unicode="4" horiz-adv-x="1269" d="M86 485q0 42 18 76t66 86l596 594q54 56 93 75t106 19q90 0 123 -34.5t18 -110.5l-141 -662h235q-4 -20 -10 -55l-21 -96l-6 -21h-231l-76 -356h-197l74 356h-586q-6 0 -20 18t-27.5 49.5t-13.5 61.5zM279 524h497l135 639z" />
<glyph unicode="5" horiz-adv-x="1171" d="M47 254q0 38 25.5 66.5t51 39t28.5 5.5q95 -222 374 -222q148 0 238 82t90 215q0 108 -70.5 166t-210.5 58q-158 0 -280 -70q-63 14 -86 49t-10 98l96 467q25 117 137 117h752q-7 -24 -13 -61l-26 -119h-676l-78 -361q101 39 221 39q212 0 331.5 -100.5t119.5 -267.5 q0 -214 -146 -347t-391 -133q-281 0 -411 134q-66 69 -66 145z" />
<glyph unicode="6" horiz-adv-x="1271" d="M150 463q0 72 14.5 165t43 197t80.5 204t118 165q78 80 171 119t238 39q114 0 205 -34.5t143 -86.5q62 -65 62 -127q0 -44 -28.5 -72t-57 -35.5t-31.5 -1.5q-39 87 -118 135t-179 48q-164 0 -268 -116t-156 -343q153 110 350 110q187 0 302.5 -96t115.5 -264 q0 -97 -37.5 -186t-103.5 -157.5t-165.5 -109.5t-215.5 -41q-221 0 -352 129.5t-131 358.5zM350 455q-3 -148 73 -230t218 -82q144 0 228.5 88t84.5 220q0 106 -71 167.5t-205 61.5q-101 0 -176 -32t-142 -91q-10 -46 -10 -102z" />
<glyph unicode="7" horiz-adv-x="1155" d="M195 88q0 32 15 59t54 74l713 916h-762q6 28 18 77l23 111h860q7 0 25 -17.5t35.5 -52.5t17.5 -71q0 -38 -15 -72t-55 -84l-796 -1038q-2 0 -15 -1.5t-33 4.5t-39 15t-32.5 30t-13.5 50z" />
<glyph unicode="8" horiz-adv-x="1263" d="M84 334q0 128 93 226t255 136q-176 75 -176 254q0 169 142 284.5t358 115.5q206 0 334.5 -92.5t128.5 -241.5q0 -125 -79.5 -219.5t-226.5 -130.5q102 -41 156.5 -114t54.5 -169q0 -176 -143.5 -292t-382.5 -116q-234 0 -374 97t-140 262zM295 352q0 -96 85 -156.5 t226 -60.5q145 0 229.5 72.5t84.5 185.5q0 95 -85.5 153t-232.5 58q-130 0 -218.5 -70t-88.5 -182zM457 946q0 -89 74 -141.5t198 -52.5q133 0 210 66t77 173q0 90 -76 143.5t-199 53.5q-129 0 -206.5 -67.5t-77.5 -174.5z" />
<glyph unicode="9" horiz-adv-x="1271" d="M121 219q0 26 11 47.5t26.5 33t32 20t27.5 9t13 -0.5q42 -87 122 -134t179 -47q161 0 263.5 111t156.5 328q-157 -109 -346 -109q-193 0 -305.5 95.5t-112.5 273.5q0 136 63.5 250t184.5 184t275 70q225 0 355 -129t130 -359q0 -100 -23.5 -226.5t-84.5 -272.5t-146 -232 q-80 -79 -173 -117.5t-239 -38.5q-233 0 -350 117q-59 62 -59 127zM389 864q0 -112 69 -174.5t206 -62.5q180 0 317 123q12 64 12 118q5 150 -70 233t-216 83q-146 0 -232 -90.5t-86 -229.5z" />
<glyph unicode=":" horiz-adv-x="528" d="M76 72q0 89 43 129q32 32 98 32q57 0 87 -22.5t30 -63.5q0 -91 -41 -129q-32 -32 -100 -32q-57 0 -87 22.5t-30 63.5zM221 737q0 85 41 129q31 31 100 31q117 0 117 -86q0 -85 -41 -129q-31 -31 -100 -31q-117 0 -117 86z" />
<glyph unicode=";" horiz-adv-x="577" d="M-53 -201l217 443q1 3 19.5 3.5t44.5 -4t51 -14t43 -29.5t18 -48q0 -31 -12.5 -57t-44.5 -64l-242 -289q-14 -9 -38.5 -4.5t-44 24t-11.5 39.5zM221 737q0 85 41 129q31 31 100 31q117 0 117 -86q0 -85 -41 -129q-31 -31 -100 -31q-117 0 -117 86z" />
<glyph unicode="&#x3c;" horiz-adv-x="1019" d="M129 532q3 88 100 134l699 338q5 1 17 -12t24 -37.5t12 -49.5q3 -70 -104 -121l-539 -249l399 -232q101 -57 94 -131q-3 -26 -16.5 -49.5t-27.5 -34.5t-19 -8l-573 344q-66 42 -66 108z" />
<glyph unicode="=" horiz-adv-x="1171" d="M92 260q0 23 9.5 54.5t25.5 47.5q23 23 78 23h700q88 0 88 -55q0 -24 -9.5 -56.5t-25.5 -46.5q-19 -22 -77 -22h-701q-88 0 -88 55zM195 739q0 23 9 55t25 46q19 22 78 22h701q43 0 66.5 -14.5t23.5 -40.5q0 -23 -10.5 -54.5t-26.5 -47.5q-21 -21 -76 -21h-702 q-88 0 -88 55z" />
<glyph unicode="&#x3e;" horiz-adv-x="1019" d="M59 178q-3 69 105 121l538 250l-399 231q-101 57 -94 131q3 26 16.5 50t27.5 35t19 8l574 -345q65 -42 65 -108q-3 -87 -100 -133l-698 -338q-5 -1 -17.5 11.5t-24.5 37t-12 49.5z" />
<glyph unicode="?" horiz-adv-x="1050" d="M205 1049q0 86 84 170q133 133 346 133q195 0 313.5 -103.5t118.5 -261.5q0 -69 -22 -125.5t-52.5 -92.5t-79 -66.5t-86 -45.5t-88.5 -32q-96 -31 -145.5 -77t-58.5 -91l-19 -82h-184q4 16 22 100q21 98 79.5 167.5t178.5 109.5q131 43 188.5 92t57.5 137q0 86 -64 142.5 t-171 56.5q-106 0 -183.5 -61.5t-115.5 -164.5q-1 -6 -30.5 0.5t-59 31.5t-29.5 63zM270 72q0 88 41 129q32 32 101 32q116 0 116 -86q0 -89 -43 -129q-28 -32 -98 -32q-57 0 -87 22.5t-30 63.5z" />
<glyph unicode="@" horiz-adv-x="1591" d="M160 575q0 160 58 304t158 247.5t239.5 164.5t295.5 61q277 0 447 -151t170 -400q0 -215 -98.5 -341t-262.5 -126q-192 0 -221 141q-75 -131 -231 -131q-101 0 -165.5 65.5t-64.5 178.5q0 94 41 181t117 142.5t168 55.5q64 0 116.5 -29.5t76.5 -81.5l30 100h148l-76 -360 q-32 -143 90 -143q101 0 160 91.5t59 252.5q0 198 -144.5 323t-371.5 125q-128 0 -244 -51.5t-199.5 -139.5t-132.5 -210.5t-49 -259.5q0 -222 149.5 -362t391.5 -140q86 0 172.5 26.5t147.5 67.5q39 27 69 27q20 0 37 -17t24 -34.5t3 -20.5q-75 -69 -197.5 -113.5 t-265.5 -44.5q-296 0 -470.5 164t-174.5 438zM641 608q0 -62 35.5 -99.5t89.5 -37.5q69 0 123.5 49.5t68.5 122.5l17 84q-33 113 -146 113q-84 0 -136 -71t-52 -161z" />
<glyph unicode="A" horiz-adv-x="1361" d="M-68 0l762 1274q21 36 49.5 50.5t85.5 14.5q69 0 98.5 -19t37.5 -58l249 -1262h-215l-75 389h-533l-223 -389h-236zM477 559h426l-102 559z" />
<glyph unicode="B" horiz-adv-x="1335" d="M70 0l258 1208q18 117 137 117h389q201 0 305.5 -76.5t104.5 -222.5q0 -266 -283 -346q116 -31 174.5 -101.5t58.5 -166.5q0 -90 -28.5 -162t-89.5 -129.5t-168.5 -89t-255.5 -31.5h-602zM315 170h359q172 0 248.5 61t76.5 189q0 83 -65.5 129.5t-192.5 46.5h-333z M438 748h314q136 0 215.5 66t79.5 175q-6 166 -242 166h-279z" />
<glyph unicode="C" horiz-adv-x="1398" d="M147 553q0 159 57 305t154.5 254.5t237 173t295.5 64.5q265 0 407 -146q42 -40 64 -86t22 -80q0 -49 -33 -79t-66 -37t-40 0q-89 241 -356 241q-145 0 -265 -80t-187.5 -213.5t-67.5 -289.5q0 -189 110.5 -302.5t288.5 -113.5q126 0 224 51t157 143q4 5 29.5 -3.5 t51 -35.5t25.5 -65q0 -58 -65 -123q-66 -66 -181 -111t-249 -45q-279 0 -446 156t-167 422z" />
<glyph unicode="D" horiz-adv-x="1433" d="M70 0l258 1208q18 117 137 117h237q306 0 478 -146t172 -405q0 -128 -32.5 -242.5t-99.5 -212t-163.5 -168.5t-232.5 -111t-298 -40h-456zM319 182h238q144 0 256.5 45t182 123.5t105.5 178.5t36 216q0 187 -119.5 292.5t-333.5 105.5h-162z" />
<glyph unicode="E" horiz-adv-x="1271" d="M70 0l258 1208q22 117 137 117h866q1 0 -9 -46.5t-20 -92.5l-10 -47h-768l-80 -373h623l-37 -178h-624l-84 -402h780l-39 -186h-993z" />
<glyph unicode="F" horiz-adv-x="1181" d="M72 0l256 1208q18 117 137 117h815l-39 -186h-719l-90 -422h561q1 0 -9 -44.5t-20 -88.5l-10 -45h-557l-112 -539h-213z" />
<glyph unicode="G" horiz-adv-x="1525" d="M147 543q0 127 35.5 247.5t103.5 221.5t159.5 177.5t210.5 119.5t249 43q144 0 256 -44t178 -112q76 -73 76 -147q0 -33 -14 -57.5t-33 -34.5t-40 -17t-34.5 -5t-15.5 3q-39 101 -139 165t-232 64q-153 0 -277.5 -82.5t-193.5 -221t-69 -302.5q0 -196 109 -306t294 -110 q180 0 291 105q54 50 78.5 99.5t54.5 176.5h-412l37 172h488q94 0 94 -79q0 -17 -4 -37l-123 -576q0 -2 -7 -5.5t-20.5 -6t-27.5 -2.5q-55 0 -83 36q-21 26 -21 73q0 19 3 40q-59 -76 -159.5 -121t-225.5 -45q-266 0 -426 152t-160 416z" />
<glyph unicode="H" horiz-adv-x="1452" d="M70 0l264 1237q11 50 35 73t69 23h29q47 -1 67 -27q13 -17 13 -42q0 -15 -4 -33l-99 -475h676l103 481q11 50 35 73t69 23h31q46 1 66 -27q14 -18 13 -47q0 -14 -3 -30l-265 -1229h-208l120 571h-675l-125 -571h-211z" />
<glyph unicode="I" horiz-adv-x="600" d="M90 0l283 1325h211l-283 -1325h-211z" />
<glyph unicode="J" horiz-adv-x="1013" d="M41 182q0 45 25.5 76t50.5 41t28 4q33 -67 94.5 -107t135.5 -40q107 0 167.5 65.5t92.5 216.5l190 887h209l-194 -919q-48 -219 -159 -325t-302 -106q-182 0 -285 103q-53 53 -53 104z" />
<glyph unicode="K" horiz-adv-x="1245" d="M72 0l262 1237q11 51 35 73.5t69 22.5h29q47 0 67 -27q13 -17 13 -43q0 -15 -4 -34l-107 -504l727 627h2q5 0 27 -7q28 -9 56 -34.5t28 -61.5q0 -33 -19.5 -62t-64.5 -67l-561 -461l287 -391q64 -91 103 -121.5t95 -35.5q2 0 2.5 -12.5t-5.5 -30.5t-19 -36.5t-43 -31 t-72 -12.5q-70 0 -123.5 47.5t-132.5 169.5l-305 436l-135 -641h-211z" />
<glyph unicode="L" horiz-adv-x="1118" d="M70 0l264 1237q11 50 35 73t69 23h29q47 -1 67 -27q13 -17 13 -42q0 -15 -4 -33l-221 -1043h565q44 0 68 -15.5t24 -43.5q0 -24 -10 -56.5t-27 -49.5q-20 -23 -82 -23h-790z" />
<glyph unicode="M" horiz-adv-x="1603" d="M70 0l258 1212q12 58 48.5 89.5t92.5 31.5h53q57 0 80.5 -24t34.5 -84l162 -705l467 709q41 63 71.5 83.5t83.5 20.5h62q57 -1 82 -35q17 -24 17 -58q0 -15 -3 -32l-258 -1208h-199l226 1061l-437 -664q-31 -48 -59 -67t-84 -19q-67 0 -90.5 23t-34.5 74l-147 647 l-228 -1055h-198z" />
<glyph unicode="N" horiz-adv-x="1466" d="M72 0l256 1212q25 121 129 121h35q40 0 64 -19t48 -65l453 -932l215 1008h196l-260 -1221q-22 -112 -121 -112h-16q-38 0 -62.5 19t-50.5 65l-469 966l-221 -1042h-196z" />
<glyph unicode="O" horiz-adv-x="1566" d="M150 555q0 166 59.5 315t160 254t236 166.5t283.5 61.5q184 0 322 -78t208 -208.5t70 -293.5q0 -166 -60 -314.5t-160.5 -253.5t-236 -166t-282.5 -61q-185 0 -323 77.5t-207.5 207.5t-69.5 293zM365 569q0 -176 107 -291.5t294 -115.5q95 0 186 44.5t162 121.5 t114.5 190t43.5 240q0 176 -106.5 291.5t-293.5 115.5q-96 0 -187.5 -44.5t-162 -121.5t-114 -190t-43.5 -240z" />
<glyph unicode="P" horiz-adv-x="1234" d="M70 0l258 1208q18 117 137 117h303q224 0 344.5 -92.5t120.5 -265.5q0 -231 -143.5 -360.5t-411.5 -129.5h-293l-104 -477h-211zM420 647h282q149 0 233.5 77.5t84.5 217.5q0 209 -270 209h-224z" />
<glyph unicode="Q" horiz-adv-x="1585" d="M150 555q0 166 59.5 315t160.5 254t238 166.5t287 61.5q141 0 254.5 -44.5t187.5 -122.5t113 -183.5t39 -229.5q0 -166 -59.5 -312t-165.5 -255l8 -10q70 -94 131 -111q0 -1 1.5 -12t-5 -28t-16.5 -32.5t-32 -27t-51 -11.5q-56 0 -92 23.5t-88 91.5q-174 -111 -379 -111 q-141 0 -254 44t-186.5 122t-112 183t-38.5 229zM365 569q0 -175 106 -291t289 -116q132 0 244 71l-203 273q1 -1 66 60t67 59l205 -271q137 166 137 404q0 175 -106 291t-289 116q-99 0 -192 -44.5t-165 -121.5t-115.5 -190t-43.5 -240z" />
<glyph unicode="R" horiz-adv-x="1271" d="M72 0l256 1208q18 117 137 117h326q228 0 346 -87.5t118 -256.5q0 -203 -129 -323t-356 -126l154 -260q50 -87 88.5 -119.5t105.5 -33.5q2 -1 3 -14.5t-5 -32.5t-19.5 -38t-44 -32.5t-73.5 -13.5q-72 0 -125 44.5t-123 170.5l-176 315h-164l-108 -518h-211zM424 684h303 q149 0 230 72.5t81 201.5q0 95 -68.5 145t-197.5 50h-248z" />
<glyph unicode="S" horiz-adv-x="1187" d="M45 276q0 38 25 66t49.5 38t27.5 5q54 -109 161.5 -173.5t252.5 -64.5q136 0 204.5 54.5t68.5 154.5q0 25 -8 47t-18.5 39t-33 34.5t-39.5 29t-51.5 27t-54.5 24t-62 25.5q-43 18 -71.5 30.5t-68 34t-65.5 41t-54 48.5t-44.5 60.5t-27.5 73t-11 88.5q0 168 128 280 t349 112q139 0 242 -36t164 -97q66 -66 66 -140q0 -40 -25.5 -69t-51.5 -38t-30 -3q-49 99 -143.5 155t-227.5 56q-116 0 -188 -55.5t-72 -141.5q0 -37 13.5 -67t34.5 -51.5t57.5 -42.5t71.5 -37t87 -38l15 -6q44 -18 72.5 -30.5t68.5 -33t65 -39.5t53.5 -47t44.5 -57.5 t27 -69.5t11 -85q0 -182 -129.5 -292t-370.5 -110q-143 0 -255.5 40.5t-180.5 107.5q-76 79 -76 153z" />
<glyph unicode="T" horiz-adv-x="1284" d="M229 1196q0 24 10 57t27 50q19 22 82 22h930q92 0 92 -59q0 -23 -10.5 -56.5t-26.5 -50.5q-22 -22 -82 -22h-364l-242 -1137h-209l240 1137h-354q-44 0 -68.5 15.5t-24.5 43.5z" />
<glyph unicode="U" horiz-adv-x="1396" d="M180 596l135 641q12 50 37 73t70 23h29q45 1 65 -27q13 -18 13 -46q0 -14 -3 -31l-137 -649q-16 -75 -16 -137q-1 -107 47 -175q74 -106 260 -106q280 0 356 358l154 717q11 50 35 73t69 23h27q45 1 65 -27q14 -18 14 -46q0 -13 -3 -29l-156 -737q-112 -519 -579 -519 q-289 0 -418 159q-86 106 -86 275q0 85 22 187z" />
<glyph unicode="V" horiz-adv-x="1337" d="M233 1266q-3 16 38.5 41.5t86.5 25.5q41 0 69.5 -27t35.5 -79l164 -981l610 1089q1 1 9 1q2 0 4 1q8 1 18 -1q14 -2 30 -5t32.5 -11t30 -19.5t22 -30.5t8.5 -43q0 -41 -52 -127l-655 -1100h-207z" />
<glyph unicode="W" horiz-adv-x="1961" d="M303 1284q0 14 37 32.5t78 18.5q52 0 79 -33q25 -31 25 -82v-8l10 -981l435 848q23 46 56.5 66t86.5 20q127 0 133 -108l68 -826l485 1100q0 2 16.5 3t40.5 -2t48 -12.5t40.5 -33t16.5 -57.5q0 -44 -39 -123l-520 -1106h-242l-78 928l-491 -928h-238z" />
<glyph unicode="X" horiz-adv-x="1290" d="M6 84q0 52 68 117l477 479l-303 645h223l238 -537l522 562h2q3 0 11 -2q12 -2 31 -9.5t37.5 -19t31 -31.5t12.5 -45q0 -51 -68 -119l-485 -485l160 -342q48 -105 86 -138.5t102 -35.5q2 0 3 -8t-1 -21t-6.5 -28.5t-14.5 -31t-25 -28.5t-39 -21t-54 -8q-74 0 -126.5 56 t-103.5 182l-137 315l-516 -553q-1 -1 -4 -1q-9 0 -29 6q-30 8 -61 35t-31 67z" />
<glyph unicode="Y" horiz-adv-x="1239" d="M180 1325h221l258 -606l525 622h2q3 0 12 -1q13 -2 31.5 -8.5t37 -17t31.5 -31.5t13 -48q0 -53 -72 -133l-502 -565l-112 -537h-213l116 547z" />
<glyph unicode="Z" horiz-adv-x="1239" d="M2 0q13 64 27 125q9 46 28.5 78.5t65.5 75.5l874 862h-626q-115 0 -115 76q0 21 9.5 48t20 43.5t13.5 16.5h985q-13 -64 -27 -125q-9 -46 -28 -78t-64 -75l-872 -863h670q114 0 114 -75q0 -21 -9.5 -48t-20 -44t-13.5 -17h-1032z" />
<glyph unicode="[" horiz-adv-x="776" d="M-12 -406q10 48 30 138l316 1482l24 117h426q40 0 62 -14t22 -39q0 -22 -9 -52t-25 -46q-21 -21 -74 -21h-250l-295 -1390h240q84 0 84 -56q0 -21 -9.5 -51.5t-23.5 -44.5q-26 -23 -76 -23h-442z" />
<glyph unicode="\" horiz-adv-x="763" d="M207 1337h182l172 -1753h-180z" />
<glyph unicode="]" horiz-adv-x="776" d="M-104 -352q0 22 9 52t25 46q21 21 74 21h250l295 1390h-240q-84 0 -84 55q0 21 9.5 52t23.5 45q25 22 76 22h442q-11 -47 -31 -137l-315 -1483l-24 -117h-426q-39 0 -61.5 14.5t-22.5 39.5z" />
<glyph unicode="^" horiz-adv-x="1093" d="M367 967q0 70 135 180q63 52 126 91t85 42q15 -3 59.5 -42.5t81.5 -86.5q84 -103 84 -162q0 -36 -20.5 -58t-51.5 -22q-32 0 -61.5 29.5t-65.5 93.5q-5 9 -23 41t-28 53q-62 -70 -88 -96q-108 -121 -174 -121q-28 0 -43.5 16.5t-15.5 41.5z" />
<glyph unicode="_" horiz-adv-x="1050" d="M-63 -117q0 21 9 50.5t23 43.5q23 23 74 23h743q84 0 84 -53q0 -20 -9 -50t-23 -44q-24 -21 -74 -21h-744q-83 0 -83 51z" />
<glyph unicode="`" horiz-adv-x="1093" d="M428 1376q0 37 27 62.5t65 25.5q50 0 101 -41q56 -42 111 -109.5t82.5 -117.5t21.5 -59q-8 -10 -60.5 -1t-131 41t-140.5 78q-76 56 -76 121z" />
<glyph unicode="a" d="M94 387q0 115 41.5 227.5t112.5 200t175.5 141.5t221.5 54q113 0 202 -51.5t132 -139.5l39 166h196l-159 -760q-8 -38 -9 -65q0 -28 9 -44q17 -32 80 -38l1 -5q1 -5 -2 -14t-7 -19t-13.5 -20.5t-22 -18.5t-32.5 -13.5t-45 -5.5q-93 0 -134 53q-34 43 -34 116q0 16 2 33 q-63 -101 -159.5 -155t-209.5 -54q-166 0 -275.5 110t-109.5 302zM295 406q0 -121 69 -192t171 -71q133 0 237.5 95.5t132.5 234.5l33 154q-68 219 -281 219q-108 0 -192.5 -66t-127 -165.5t-42.5 -208.5z" />
<glyph unicode="b" horiz-adv-x="1263" d="M57 16l289 1397h203l-117 -584q129 181 340 181q166 0 281.5 -114.5t115.5 -315.5q0 -114 -39 -223t-106.5 -194t-168 -136.5t-214.5 -51.5q-118 0 -210 55t-138 150v-6q-22 -99 -59.5 -140.5t-102.5 -41.5q-12 0 -23.5 2t-20.5 5t-16.5 6t-11 6t-2.5 5zM356 471 q-7 -34 -7 -66q0 -93 57 -165q76 -98 221 -99q79 0 145 36.5t108.5 96.5t65.5 135t23 154q0 128 -72.5 204.5t-179.5 76.5q-97 0 -183.5 -55t-142.5 -146z" />
<glyph unicode="c" horiz-adv-x="1126" d="M90 430q0 113 44 219t118 185.5t179 127.5t220 48q225 0 346 -125q80 -80 80 -164q0 -32 -13.5 -56t-33.5 -34.5t-39.5 -15.5t-33.5 -4t-15 5q-20 101 -93 162.5t-192 61.5q-107 0 -193 -58t-131.5 -148t-45.5 -190q0 -133 81 -216t218 -83q181 0 284 166q3 4 28 -2.5 t50 -29t25 -56.5q0 -55 -66 -121q-57 -55 -145.5 -91t-194.5 -36q-208 0 -342.5 122.5t-134.5 332.5z" />
<glyph unicode="d" d="M100 406q0 154 65.5 291.5t188.5 225t275 87.5q116 0 206 -50.5t142 -140.5l125 594h198l-245 -1188q-10 -40 -10 -67q0 -26 9 -42q18 -32 81 -38l1 -5q1 -5 -2 -14t-7 -19t-13.5 -20.5t-22 -18.5t-32.5 -13.5t-45 -5.5q-90 0 -132 50q-37 43 -37 117q0 10 1 21 q-131 -195 -348 -195q-80 0 -151.5 28.5t-126.5 81.5t-87.5 136t-32.5 185zM299 422q0 -127 73 -203t179 -76q126 0 224 88.5t126 225.5l35 164q-40 111 -106.5 168t-184.5 57q-107 0 -187.5 -63t-119.5 -158t-39 -203z" />
<glyph unicode="e" horiz-adv-x="1124" d="M86 385q0 132 48.5 248.5t131.5 199t197.5 130t243.5 47.5q174 0 272 -74.5t98 -198.5q0 -78 -28 -134.5t-92 -99t-176.5 -64t-274.5 -21.5q-89 0 -236 10v-37q0 -119 70.5 -189.5t200.5 -70.5q199 0 315 154q3 4 25 -2.5t44.5 -28.5t22.5 -53t-10.5 -53t-38.5 -50 q-126 -123 -362 -123q-217 0 -334 113t-117 297zM303 569q87 -10 184 -10q406 0 406 172q0 53 -51 90t-144 37q-131 0 -237.5 -81t-157.5 -208z" />
<glyph unicode="f" horiz-adv-x="792" d="M119 819q2 18 10 53q10 55 21 93l4 20h202l23 96q69 340 350 340q131 0 189 -61q32 -32 32 -76q0 -27 -14.5 -51t-29.5 -35.5t-19 -7.5q-21 29 -61.5 48t-86.5 19q-65 0 -107 -44.5t-63 -143.5l-18 -84h264q-4 -18 -12 -51l-19 -94l-4 -21h-258l-172 -819h-203l175 819 h-203z" />
<glyph unicode="g" horiz-adv-x="1267" d="M33 -145q0 46 28 77.5t55.5 41.5t30.5 3q77 -215 338 -215q132 0 216 73t114 218l29 140q-132 -177 -344 -177q-80 0 -151.5 28.5t-127.5 81t-88.5 134.5t-32.5 182q0 106 41 208.5t111.5 182t173.5 128.5t217 49q112 0 201.5 -51t134.5 -138l39 164h196l-198 -942 q-48 -224 -181 -338.5t-362 -114.5q-244 0 -371 127q-69 69 -69 138zM299 455q0 -125 74 -200t180 -75q125 0 224.5 81t125.5 206l35 164q-30 101 -101.5 157t-179.5 56q-103 0 -187 -58t-127.5 -146.5t-43.5 -184.5z" />
<glyph unicode="h" horiz-adv-x="1210" d="M53 0l293 1413q1 6 12 6t36.5 -3t43.5 -3h25q14 0 29 1.5l25 2.5t18 2h6q3 -1 5 -1q4 -2 3 -5l-119 -592q54 88 140.5 138.5t187.5 50.5q154 0 243 -91t89 -235q0 -84 -60 -297q-49 -169 -49 -221q0 -40 20.5 -58.5t63.5 -23.5q0 -1 1 -10.5t-7.5 -25t-20.5 -30.5 t-38 -25.5t-60 -10.5q-78 0 -120 42t-42 117q0 62 51 254q50 169 50 238q0 95 -51.5 148t-145.5 53q-93 0 -161.5 -47.5t-129.5 -149.5l-135 -637h-117q-14 0 -29 -1.5l-25 -2.5t-18 -2t-11.5 0.5t-2.5 5.5z" />
<glyph unicode="i" horiz-adv-x="546" d="M113 227l161 758h201l-160 -760q-8 -37 -8 -64q-1 -29 9 -47q18 -32 87 -36l1 -5q1 -5 -2 -14t-7 -19t-14.5 -20.5t-23 -18.5t-34 -13.5t-47.5 -5.5q-110 0 -149 64q-24 39 -24 98q0 37 10 83zM322 1290q0 56 34.5 93.5t92.5 37.5t89 -24.5t31 -67.5q0 -57 -34.5 -95 t-92.5 -38t-89 25t-31 69z" />
<glyph unicode="j" horiz-adv-x="548" d="M-281 -283q0 26 14 52.5t28.5 40t15.5 10.5q21 -29 59.5 -48.5t79.5 -19.5q54 0 86.5 34.5t50.5 119.5l230 1079h200l-233 -1108q-62 -291 -311 -291q-130 0 -187 60q-33 33 -33 71zM332 1290q0 56 34.5 93.5t92.5 37.5t88.5 -24.5t30.5 -67.5q0 -57 -34.5 -95t-92.5 -38 q-57 0 -88 25t-31 69z" />
<glyph unicode="k" horiz-adv-x="1036" d="M53 0l293 1413h203l-174 -852l534 449q2 4 27 -4t50.5 -34t25.5 -65q0 -53 -78 -116l-373 -297l146 -224q42 -68 70 -98.5t55 -41t77 -13.5q0 -1 2.5 -14t-5.5 -33.5t-19.5 -40t-40 -33.5t-68.5 -14q-71 0 -117.5 42.5t-130.5 182.5l-172 282q1 0 -24.5 -122t-51.5 -245 l-26 -122h-203z" />
<glyph unicode="l" horiz-adv-x="546" d="M113 227l247 1186h201l-246 -1188q-7 -35 -7 -62q0 -31 10 -49q18 -32 85 -36l1 -5q1 -5 -2 -14t-7 -19t-14.5 -20.5t-23 -18.5t-34 -13.5t-47.5 -5.5q-173 0 -173 161q0 37 10 84z" />
<glyph unicode="m" horiz-adv-x="1853" d="M53 0l209 983q5 10 51 10q57 0 90 -35q25 -27 25 -82q0 -17 -2 -36q60 83 142.5 126.5t176.5 43.5q111 0 190 -57.5t107 -155.5q140 213 371 213q143 0 231.5 -92.5t88.5 -233.5q0 -78 -58 -297q-49 -169 -49 -221q0 -40 20.5 -58.5t63.5 -23.5l1 -6q1 -5 -2.5 -14 t-8 -20t-15 -22t-23 -20t-33.5 -14.5t-46 -5.5q-77 0 -118.5 42.5t-41.5 116.5q0 71 52 254q47 171 47 238q0 92 -50 146.5t-131 54.5q-88 0 -151.5 -41.5t-126.5 -135.5l-137 -657h-203l117 559q9 43 9 80q-1 68 -31 118q-48 77 -146 77q-88 0 -151 -42t-126 -137 l-139 -655h-203z" />
<glyph unicode="n" horiz-adv-x="1210" d="M53 0l209 983q5 10 51 10q59 -1 93 -39q24 -27 24 -80q0 -22 -4 -49q58 88 143.5 136.5t186.5 48.5q155 0 244.5 -91t89.5 -235q0 -84 -60 -297q-49 -169 -49 -221q0 -40 20.5 -58.5t63.5 -23.5q0 -1 1 -10.5t-7.5 -25t-20.5 -30.5t-38 -25.5t-60 -10.5q-78 0 -120 42 t-42 117q0 62 51 254q50 169 50 238q0 95 -51.5 148t-145.5 53q-93 0 -161.5 -47.5t-129.5 -149.5l-135 -637h-203z" />
<glyph unicode="o" horiz-adv-x="1204" d="M94 430q0 153 68.5 285t197.5 213.5t291 81.5q202 0 331.5 -128.5t129.5 -326.5q0 -153 -68.5 -285t-197.5 -213.5t-291 -81.5q-202 0 -331.5 128.5t-129.5 326.5zM281 438q0 -130 80.5 -215.5t201.5 -85.5q101 0 185 57t131 151t47 202q0 130 -81 215.5t-202 85.5 q-101 0 -185 -57t-130.5 -151t-46.5 -202z" />
<glyph unicode="p" horiz-adv-x="1263" d="M-27 -389l289 1372q5 10 51 10q61 0 95 -40q22 -27 22 -77q0 -25 -6 -57q133 191 348 191q166 0 281.5 -114.5t115.5 -315.5q0 -114 -39 -223t-106.5 -194t-168 -136.5t-214.5 -51.5q-122 0 -213 58t-133 149l-121 -571h-201zM356 471q-7 -34 -7 -66q0 -92 57 -165 q76 -99 221 -99q79 0 145 36.5t108.5 96.5t65.5 135t23 154q0 128 -72.5 204.5t-179.5 76.5q-98 0 -184 -55t-140 -146z" />
<glyph unicode="q" horiz-adv-x="1267" d="M100 406q0 154 65.5 291.5t188.5 225t275 87.5q116 0 207.5 -50.5t142.5 -140.5q22 95 58.5 134.5t101.5 39.5q19 0 36.5 -5t27 -10.5t9.5 -8.5l-288 -1358h-203l115 543q-134 -179 -338 -179q-80 0 -151.5 28.5t-126.5 81.5t-87.5 136t-32.5 185zM299 422 q0 -127 73 -203t179 -76q126 0 224 88.5t126 225.5l35 164q-40 111 -106.5 168t-184.5 57q-107 0 -187.5 -63t-119.5 -158t-39 -203z" />
<glyph unicode="r" horiz-adv-x="831" d="M53 0l209 983q5 10 51 10q59 0 93 -40q23 -27 23 -79q0 -25 -5 -55q102 191 270 191q67 0 112.5 -31t45.5 -82q0 -28 -8.5 -52t-21 -38.5t-25.5 -24.5t-22.5 -13.5t-10.5 -2.5q-48 55 -131 55q-104 0 -178.5 -113t-114.5 -307l-84 -401h-203z" />
<glyph unicode="s" horiz-adv-x="1003" d="M35 207q0 32 20 58t40 36t24 6q53 -79 141.5 -128.5t198.5 -49.5q95 0 147.5 37t52.5 100q0 51 -46 81t-154 67q-45 16 -71.5 27t-66 30t-63 39.5t-47 48.5t-34.5 64t-11 79q0 135 105 221.5t278 86.5q110 0 199.5 -33t142.5 -88q51 -48 51 -103q0 -35 -22 -61t-44 -34.5 t-26 -2.5q-42 74 -124.5 121t-178.5 47q-91 0 -141 -38.5t-50 -94.5q0 -53 48 -84.5t165 -75.5q55 -20 87.5 -33.5t77 -39t68.5 -52t42 -66.5t18 -89q0 -140 -105 -224t-290 -84q-123 0 -222.5 36t-158.5 93q-51 51 -51 103z" />
<glyph unicode="t" horiz-adv-x="819" d="M131 819q2 18 10 53q10 55 21 93l4 20h160l16 80q19 90 55 129t101 39q7 0 14 -0.5t13 -2l12 -3t10.5 -3t9 -3.5t7.5 -4t5 -3.5t3 -3t1 -2.5l-47 -223h305q-4 -18 -12 -51l-18 -94l-4 -21h-308l-102 -475q-9 -45 -9 -81q0 -128 122 -128q38 0 72.5 17.5t56.5 40.5 q3 2 12.5 -6.5t18 -27.5t8.5 -40q0 -47 -39 -86q-60 -60 -183 -60q-154 0 -224 95q-45 61 -45 157q0 52 13 115l101 479h-160z" />
<glyph unicode="u" horiz-adv-x="1212" d="M135 428l117 557h203l-117 -555q-10 -46 -11 -86q0 -68 31 -116q48 -76 162 -76q94 0 162.5 47.5t130.5 148.5l135 637h201l-160 -760q-8 -38 -9 -65q0 -28 9 -44q17 -32 80 -38l1 -5q1 -5 -2 -14t-7 -19t-13.5 -20.5t-22 -18.5t-32.5 -13.5t-45 -5.5q-168 0 -168 165v17 q-58 -90 -143 -139.5t-188 -49.5q-189 1 -273 125q-55 82 -56 198q0 61 15 130z" />
<glyph unicode="v" horiz-adv-x="1075" d="M81 878q-1 7 2 18.5t7 24.5t14.5 26.5t23.5 24.5t35.5 18t49.5 7q75 0 125 -47q37 -38 57 -105t31 -175l51 -459l457 784q2 0 15.5 1t34.5 -5t40.5 -15t34 -30t14.5 -49q0 -26 -10 -50.5t-37 -68.5l-487 -778h-209l-94 672q-14 113 -49.5 155.5t-104.5 44.5z" />
<glyph unicode="w" horiz-adv-x="1552" d="M111 896q1 10 7 24q8 18 21 35t42 29.5t67 12.5q72 0 117 -45q69 -69 69 -264v-16l-6 -459l281 567q25 50 55.5 67t81.5 17q119 0 127 -110l45 -543l362 784q2 -1 14.5 0.5t33 -4t40 -13.5t35 -28.5t17.5 -48.5q1 -4 1 -9q0 -37 -36 -104l-400 -788h-204l-68 627 l-332 -627h-221l-8 676q-1 111 -34.5 154t-104.5 49z" />
<glyph unicode="x" horiz-adv-x="1071" d="M14 82q0 31 17.5 59t58.5 64l309 295l-247 485h219l180 -389l399 410h2q7 0 28 -7q26 -9 53.5 -34.5t27.5 -61.5q0 -31 -17.5 -59t-58.5 -64l-336 -321l82 -162q51 -102 93.5 -132.5t117.5 -33.5q0 -1 2.5 -14.5t-5.5 -35t-19.5 -42t-40.5 -35t-68 -14.5q-80 0 -137 52.5 t-123 203.5l-51 116l-375 -382h-1q-4 0 -12 2q-12 3 -27.5 10.5t-31.5 18.5t-27.5 30t-11.5 41z" />
<glyph unicode="y" horiz-adv-x="1079" d="M-127 -287q0 23 13 45.5t26.5 33.5t17.5 9q18 -21 52.5 -35t60.5 -14q62 0 126.5 55t168.5 207l29 43q-64 11 -76 97l-58 518q-12 106 -48 152t-103 48q-1 0 -1.5 7t2 18t7 24t15 26.5t25 24.5t38 18t53.5 7q174 0 203 -327l41 -467l450 782h203l-604 -1028 q-115 -196 -218 -284.5t-220 -88.5q-119 0 -170 54q-33 29 -33 75z" />
<glyph unicode="z" horiz-adv-x="1060" d="M20 0q11 53 21 102q8 41 23 68t53 61l649 592h-463q-102 0 -102 68q0 19 8.5 42t17.5 37.5t11 14.5h790q-12 -51 -22 -102q-9 -42 -23 -68.5t-53 -58.5l-647 -594h485q102 0 102 -68q0 -19 -8.5 -42t-17 -37.5t-10.5 -14.5h-814z" />
<glyph unicode="{" horiz-adv-x="956" d="M78 436q0 103 51 152q23 23 104 53l125 49q71 311 246 486q156 159 340 159q48 0 75.5 -22.5t27.5 -63.5q0 -18 -8.5 -36.5t-17 -28.5t-11.5 -10q-75 -3 -151 -37.5t-130 -89.5q-71 -70 -116.5 -178.5t-84.5 -284.5l-266 -111l211 -151q-58 -366 80 -504q56 -53 145 -74 q2 -1 6 -8t7.5 -19.5t3.5 -25.5q0 -47 -27 -74t-80 -27q-107 0 -200 93q-88 89 -125.5 234.5t-18.5 322.5l-100 73q-53 38 -69.5 62t-16.5 61z" />
<glyph unicode="|" horiz-adv-x="593" d="M27 -301l327 1542q11 50 35.5 73t69.5 23h24q42 0 62 -27t10 -75l-328 -1542q-11 -52 -35.5 -75.5t-70.5 -23.5h-25q-41 0 -60 27.5t-9 77.5z" />
<glyph unicode="}" horiz-adv-x="956" d="M-102 -324q0 18 8 37t15.5 29t10.5 10q75 3 150.5 37.5t132.5 89.5q70 71 115 179.5t86 283.5l266 111l-213 153q58 364 -80 502q-48 51 -143 76q-3 1 -7 7t-8 18.5t-4 25.5q0 47 27.5 73.5t81.5 26.5q107 0 199 -92q89 -87 125.5 -232t17.5 -325l100 -72 q54 -37 70 -61.5t16 -63.5q0 -99 -49 -151q-23 -23 -104 -53l-125 -47q-75 -315 -248 -488q-160 -160 -340 -160q-46 0 -73 22.5t-27 63.5z" />
<glyph unicode="~" horiz-adv-x="1093" d="M219 397q0 79 58 144t126 65q57 0 131 -40t146 -113q65 141 121 141q31 0 48 -17t17 -42q0 -79 -58 -144t-126 -65q-57 0 -130.5 40t-145.5 113q-65 -141 -121 -141q-31 0 -48.5 17t-17.5 42z" />
<glyph unicode="&#xa1;" horiz-adv-x="602" d="M66 -4l260 887q11 32 24 45.5t35 13.5q38 0 50.5 -16.5t10.5 -61.5l-114 -868h-266zM328 1178q0 89 43 129q32 32 98 32q57 0 87 -22.5t30 -63.5q0 -91 -41 -129q-32 -32 -101 -32q-116 0 -116 86z" />
<glyph unicode="&#xa2;" horiz-adv-x="1175" d="M137 514q0 148 70 279t194.5 214t274.5 91l35 155q10 54 30.5 76.5t55.5 22.5h10q41 0 65.5 -23.5t14.5 -75.5l-37 -170q126 -27 209 -110q80 -77 80 -168q0 -32 -14.5 -55.5t-35.5 -33t-42 -13.5t-36 -2.5t-16 6.5q-15 77 -63.5 131t-124.5 75l-148 -688q169 11 263 166 q4 4 30 -2.5t52 -30t26 -59.5q0 -57 -63 -117q-53 -55 -141 -90.5t-195 -36.5l-33 -161q-12 -53 -32.5 -75t-53.5 -22h-12q-40 0 -64.5 22.5t-13.5 74.5l37 182q-147 43 -234.5 157t-87.5 281zM334 528q0 -99 45 -172.5t127 -107.5l143 674q-139 -23 -227 -138t-88 -256z " />
<glyph unicode="&#xa3;" horiz-adv-x="1218" d="M18 55q0 22 9.5 52.5t25.5 46.5q19 22 72 22h88l102 350h-131q-73 0 -73 49q0 21 9 50t23 43q22 22 72 22h147l62 211q70 241 177 346t282 105q173 0 272 -99q66 -63 66 -139q0 -32 -12.5 -56.5t-30 -35.5t-36 -18.5t-30.5 -6.5t-14 2q-43 181 -221 181q-95 0 -157.5 -70 t-113.5 -246l-51 -174h303q80 0 80 -53q0 -20 -8.5 -48t-22.5 -42q-24 -21 -71 -21h-330l-100 -350h585q109 0 109 -74q0 -20 -9 -45.5t-18.5 -41t-11.5 -15.5h-957q-86 0 -86 55z" />
<glyph unicode="&#xa4;" horiz-adv-x="1355" d="M96 481q0 20 7.5 43.5t19.5 36.5q25 21 65 21h109q9 55 35 170h-92q-76 0 -76 47q0 20 7.5 43.5t18.5 34.5q20 20 66 20h123q70 181 170 281q174 174 420 174q204 0 325 -121q70 -70 70 -162q0 -31 -12.5 -55t-29.5 -36t-35.5 -20.5t-31 -7.5t-14.5 2q-65 224 -293 224 q-149 0 -256 -107q-58 -58 -108 -172h387q76 0 76 -45q0 -21 -8 -45t-21 -35q-20 -20 -64 -20h-422q-21 -80 -32 -170h403q76 0 76 -47q0 -20 -8.5 -44t-20.5 -36q-21 -21 -63 -21h-391q16 -128 93.5 -206t205.5 -78q96 0 171 43t144 137q4 5 25.5 -5.5t43 -35.5t21.5 -56 q0 -59 -65 -124q-59 -58 -154.5 -96t-194.5 -38q-225 0 -354 123t-141 336h-121q-74 0 -74 47z" />
<glyph unicode="&#xa5;" d="M106 279q0 54 29 83q21 21 68 21h317l29 139h-303q-78 0 -78 49q0 53 29 82q21 21 67 21h254l-254 588q-2 8 12.5 24.5t44.5 31.5t64 15q73 0 104 -86l193 -510l471 604q1 1 14 -0.5t31.5 -8t37 -17t31.5 -31t13 -47.5q0 -55 -72 -135l-370 -428h237q78 0 78 -47 q0 -22 -8 -46.5t-21 -37.5q-21 -21 -67 -21h-318l-30 -139h305q78 0 78 -49q0 -53 -29 -82q-21 -21 -68 -21h-317l-31 -143q-10 -51 -36.5 -73.5t-71.5 -22.5h-9q-91 0 -71 98l28 141h-303q-78 0 -78 48z" />
<glyph unicode="&#xa7;" horiz-adv-x="1179" d="M-16 -90q0 37 24 66.5t47.5 41t26.5 7.5q47 -94 148 -151.5t247 -57.5q121 0 184.5 45t63.5 123q0 31 -16.5 56t-52.5 46t-69.5 35t-91.5 36q-7 2 -10.5 3.5t-9 3.5t-10.5 4q-47 16 -73 25.5t-69 28t-68 34t-56 39.5t-47.5 49.5t-28.5 59.5t-12 73q0 120 76 199t198 110 q-121 79 -121 215q0 155 123.5 252t327.5 97q256 0 379 -123q57 -57 57 -113q0 -38 -25 -66.5t-50 -38.5t-29 -5q-48 87 -133.5 136.5t-204.5 49.5q-113 0 -177.5 -43.5t-64.5 -114.5q0 -35 18.5 -63t55.5 -50t78 -39.5t100 -39.5q4 -1 6.5 -2t5.5 -2q40 -15 55.5 -21 t53 -21t54 -24t47.5 -26.5t45.5 -31t35 -34.5t30 -41.5t16.5 -46.5t7 -55q0 -124 -75 -202.5t-197 -109.5q127 -74 127 -211q0 -158 -123.5 -257t-343.5 -99q-289 0 -420 131q-59 59 -59 123zM301 526q0 -21 4.5 -39.5t17.5 -34.5t24 -28.5t35 -26t38.5 -21.5t48 -20.5 t50 -18.5t56.5 -20l76 -24q97 6 165.5 59.5t68.5 134.5q0 30 -14.5 56t-31.5 42t-58 35.5t-64.5 28.5t-81.5 29q-5 2 -9 3.5t-8 2.5q-41 13 -92 33q-98 -14 -161.5 -65t-63.5 -126z" />
<glyph unicode="&#xa8;" horiz-adv-x="1093" d="M393 1217q0 60 35 100.5t94 40.5q58 0 88.5 -26t30.5 -72q0 -60 -35 -101t-92 -41q-59 0 -90 26t-31 73zM768 1217q0 60 35 100.5t94 40.5t90 -26t31 -72q0 -60 -35.5 -101t-93.5 -41q-59 0 -90 26t-31 73z" />
<glyph unicode="&#xa9;" horiz-adv-x="1613" d="M166 659q0 196 87.5 354.5t242.5 248.5t348 90q196 0 350.5 -88t240 -244.5t85.5 -353.5q0 -196 -87.5 -354.5t-242.5 -248.5t-348 -90q-196 0 -350.5 88t-240 244.5t-85.5 353.5zM285 664q0 -165 72 -297.5t200.5 -207.5t288.5 -75q246 0 400.5 161t154.5 417 q0 123 -42.5 231t-116.5 184t-178 120t-224 44q-246 0 -400.5 -160.5t-154.5 -416.5zM494 659q0 158 105 263.5t261 105.5q78 0 139 -25t97 -59q37 -40 37 -82q0 -25 -20 -45.5t-40 -29t-22 -3.5q-62 103 -191 103q-86 0 -148.5 -65t-62.5 -160q0 -99 62.5 -163.5 t154.5 -64.5q134 0 191 111q4 5 24 -3t40 -29t20 -48q0 -42 -45 -90q-35 -35 -95.5 -59.5t-140.5 -24.5q-161 0 -263.5 102.5t-102.5 265.5z" />
<glyph unicode="&#xaa;" horiz-adv-x="1095" d="M162 852q0 93 33 183t90 160t140 113.5t177 43.5q89 0 159 -40.5t105 -111.5q17 74 49.5 106.5t88.5 32.5q16 0 32 -4.5t24 -9.5t7 -8l-125 -592q-14 -61 -0.5 -89t62.5 -32q0 -1 1 -9t-6 -19.5t-17 -22.5t-32 -19t-51 -8q-73 0 -108.5 42t-30.5 116q-50 -78 -126 -121 t-165 -43q-133 0 -220 89t-87 243zM313 63q0 78 37 115q27 31 90 31q51 0 78 -20.5t27 -57.5q0 -78 -39 -117q-31 -28 -88 -28q-51 0 -78 20t-27 57zM336 870q0 -92 53.5 -147t132.5 -55q101 0 181 73.5t104 180.5l24 120q-54 168 -215 168q-83 0 -148.5 -51.5t-98.5 -128 t-33 -160.5z" />
<glyph unicode="&#xab;" horiz-adv-x="1132" d="M125 524q0 12 56 70.5t130 118.5q156 127 234 127q33 0 51 -19t18 -49q0 -37 -48.5 -86t-129.5 -98q-116 -73 -147 -88q63 -46 125 -105q69 -62 97.5 -97.5t29.5 -66.5q1 -29 -21.5 -49t-56.5 -20q-88 0 -205 147q-52 66 -92.5 133t-40.5 82zM555 504q0 11 65 75.5 t142 125.5q167 137 248 137q33 0 52 -19t19 -49q0 -39 -58.5 -95.5t-148.5 -109.5q-103 -63 -155 -90q65 -47 110 -90q61 -58 85 -89.5t24 -61.5q0 -31 -24 -52.5t-60 -21.5q-83 0 -186 139q-43 58 -78 122.5t-35 78.5z" />
<glyph unicode="&#xad;" horiz-adv-x="874" d="M98 406q7 30 17 77l6 29l16 80h637q-6 -33 -16 -80l-6 -29l-17 -77h-637z" />
<glyph unicode="&#xae;" horiz-adv-x="1613" d="M166 659q0 196 87.5 354.5t242.5 248.5t348 90q196 0 350.5 -88t240 -244.5t85.5 -353.5q0 -196 -87.5 -354.5t-242.5 -248.5t-348 -90q-196 0 -350.5 88t-240 244.5t-85.5 353.5zM285 664q0 -165 72 -297.5t200.5 -207.5t288.5 -75q246 0 400.5 161t154.5 417 q0 123 -42.5 231t-116.5 184t-178 120t-224 44q-246 0 -400.5 -160.5t-154.5 -416.5zM571 391v545q0 41 21.5 63.5t58.5 22.5h217q287 0 287 -225q0 -92 -54.5 -146t-137.5 -67l182 -222q4 -5 -6.5 -19t-33 -27t-46.5 -13q-57 0 -98 57l-156 205h-80v-188q0 -34 -18 -53 t-50 -19h-20q-32 0 -49 23t-17 63zM721 684h145q65 0 100 28.5t35 78.5q0 106 -141 106h-139v-213z" />
<glyph unicode="&#xaf;" horiz-adv-x="1093" d="M383 1204q0 21 8.5 49.5t22.5 44.5q21 21 73 21h459q84 0 84 -53q0 -20 -9.5 -49t-23.5 -43q-20 -23 -73 -23h-459q-82 0 -82 53z" />
<glyph unicode="&#xb0;" horiz-adv-x="862" d="M197 983q0 99 45.5 184t129 136t187.5 51q127 0 209 -76.5t82 -202.5q0 -151 -103 -259.5t-260 -108.5q-126 0 -208 76t-82 200zM342 993q0 -68 46.5 -113.5t117.5 -45.5q83 0 141 70t58 163q0 68 -46.5 114t-117.5 46q-83 0 -141 -70.5t-58 -163.5z" />
<glyph unicode="&#xb1;" horiz-adv-x="1298" d="M141 248q0 21 10 50t23 42q22 22 72 22h731q84 0 84 -53q0 -22 -9.5 -50.5t-23.5 -41.5q-22 -22 -72 -22h-731q-40 0 -62 14t-22 39zM289 862q0 20 8.5 47.5t21.5 40.5q23 23 70 23h277l55 264q17 86 82 86h20q37 0 57 -22.5t11 -67.5l-55 -260h260q80 0 80 -53 q0 -21 -8.5 -49t-22.5 -40q-22 -22 -70 -22h-274l-53 -254q-20 -86 -84 -86h-21q-37 0 -56 22.5t-9 67.5l53 250h-260q-39 0 -60.5 14t-21.5 39z" />
<glyph unicode="&#xb2;" horiz-adv-x="757" d="M68 680q12 112 79 182q37 39 86 63.5t121 49.5q48 16 69 23.5t52 21.5t43.5 26t22.5 30.5t10 41.5q0 40 -35.5 65t-93.5 25q-114 0 -166 -121q-3 -3 -25 0t-45.5 21.5t-23.5 54.5q0 55 49 101q80 77 231 77q122 0 194.5 -57.5t72.5 -155.5q0 -45 -14 -81.5t-35.5 -61 t-58 -45.5t-70.5 -34.5t-85 -28.5q-57 -18 -84.5 -28t-60.5 -27.5t-53 -37.5q-29 -29 -37 -69h340q84 0 84 -56q0 -16 -7.5 -34.5t-14.5 -29.5t-9 -11h-475q-33 0 -49.5 26.5t-11.5 69.5z" />
<glyph unicode="&#xb3;" horiz-adv-x="757" d="M53 737q0 26 10.5 45.5t25 28t30 14.5t26 4.5t11.5 -2.5q11 -63 56 -97t122 -34q73 0 113 34.5t40 88.5q0 41 -29.5 65.5t-86.5 24.5h-37q-60 0 -60 45q0 40 21 58q13 18 70 18h45q135 0 135 96q0 38 -36 63t-93 25q-115 0 -172 -100q-1 -1 -10 -2t-22 3.5t-25.5 11 t-21.5 21t-9 34.5q0 41 37 78q81 81 233 81q120 0 198 -53t78 -137q0 -74 -42.5 -122.5t-127.5 -65.5q113 -43 113 -154q0 -46 -16.5 -87t-51.5 -76.5t-97.5 -56t-145.5 -20.5q-81 0 -142 20.5t-94 53.5q-45 42 -45 94z" />
<glyph unicode="&#xb4;" horiz-adv-x="1093" d="M532 1137q-5 8 35.5 58.5t110.5 115.5t133 102q51 31 100 31q39 0 63.5 -25t24.5 -61q0 -63 -94 -119q-45 -26 -98.5 -47t-98 -33t-86.5 -20t-63 -7t-27 5z" />
<glyph unicode="&#xb6;" horiz-adv-x="1290" d="M162 895q0 92 29 168t89.5 136t162 93t237.5 33h248q49 0 71 -27t13 -75l-246 -1157q-9 -40 -28 -57t-54 -17h-20q-35 0 -51 22t-7 60l107 506h-105q-218 0 -332 79.5t-114 235.5zM883 74l252 1183q8 39 26 56.5t53 17.5h23q35 0 50 -21.5t7 -60.5l-252 -1183 q-9 -40 -27.5 -57t-53.5 -17h-21q-35 0 -50.5 22t-6.5 60z" />
<glyph unicode="&#xb7;" horiz-adv-x="544" d="M145 463q0 89 43 129q33 33 99 33q116 0 116 -86q0 -91 -41 -129q-33 -33 -100 -33q-57 0 -87 22.5t-30 63.5z" />
<glyph unicode="&#xb8;" horiz-adv-x="1093" d="M182 -424l209 332q2 0 17.5 1t39 -5t45.5 -14.5t38 -27t16 -42.5q0 -54 -66 -111l-215 -188q-15 -8 -37.5 -1.5t-39 24t-7.5 32.5z" />
<glyph unicode="&#xb9;" horiz-adv-x="757" d="M82 637q0 10 5 27.5t13 25.5q9 17 24.5 24t47.5 7h121l96 420q-46 -43 -104 -43q-46 0 -72.5 24.5t-26.5 63.5q0 19 5.5 36t13.5 28t16.5 18.5t15 11t7.5 2.5q34 -43 88 -43q36 0 70 26t51 68h61q70 0 55 -78l-123 -534h113q32 0 49.5 -14t14.5 -39q0 -9 -5.5 -27 t-13.5 -27q-13 -30 -69 -30h-388q-68 0 -65 53z" />
<glyph unicode="&#xba;" horiz-adv-x="985" d="M172 887q0 122 54 227.5t157 171.5t233 66q167 0 271 -102t104 -265q0 -91 -32.5 -175.5t-90 -148.5t-142.5 -102.5t-183 -38.5q-165 0 -268 102t-103 265zM285 63q0 75 37 115q27 31 92 31q51 0 77.5 -20.5t26.5 -57.5q0 -75 -39 -117q-31 -28 -90 -28q-104 0 -104 77z M334 891q0 -98 62 -163.5t153 -65.5q118 0 198 94t80 223q0 98 -62.5 163.5t-154.5 65.5q-118 0 -197 -94t-79 -223z" />
<glyph unicode="&#xbb;" horiz-adv-x="1132" d="M55 225q0 39 58 95.5t147 109.5q20 11 73 42.5t83 47.5q-60 44 -109 90q-60 55 -84 88t-24 64t23.5 51.5t58.5 20.5q88 0 186 -138q45 -59 80 -122.5t35 -77.5q0 -11 -65 -75t-142 -128q-169 -135 -248 -135q-34 0 -53 18.5t-19 48.5zM522 227q0 38 48.5 87.5t129.5 97.5 q99 62 148 88q-53 39 -127 102q-71 66 -98 100t-27 66q-2 29 20.5 49.5t57.5 20.5q89 0 203 -148q51 -65 92 -133t41 -82q0 -12 -55.5 -70t-129.5 -118q-155 -127 -235 -127q-32 0 -50 18.5t-18 48.5z" />
<glyph unicode="&#xbc;" horiz-adv-x="1691" d="M82 637q0 10 5 27.5t13 25.5q9 17 24.5 24t47.5 7h121l96 420q-46 -43 -104 -43q-46 0 -72.5 24.5t-26.5 63.5q0 19 5.5 36t13.5 28t16.5 18.5t15 11t7.5 2.5q34 -43 88 -43q36 0 70 26t51 68h61q70 0 55 -78l-123 -534h113q32 0 49.5 -14t14.5 -39q0 -9 -5.5 -27 t-13.5 -27q-13 -30 -69 -30h-388q-68 0 -65 53zM205 20q6 27 20 47t54 60q17 18 100.5 98.5t214.5 206t215 207.5l684 659q3 3 20 -4t31.5 -27t9.5 -46q-10 -46 -73 -107q-15 -15 -103.5 -100t-214 -206t-215.5 -210l-678 -657q-7 -5 -24 3t-31.5 29t-9.5 47zM1006 276 q0 26 13.5 50.5t47.5 64.5l274 295q34 39 59.5 51.5t80.5 12.5q68 0 93.5 -26t12.5 -85l-69 -328h57q61 0 61 -43q0 -14 -6.5 -35t-17.5 -32q-17 -17 -56 -17h-65l-25 -114q-9 -43 -25 -60.5t-44 -17.5h-21q-34 0 -51 19.5t-6 60.5l22 112h-286q-5 0 -16 11.5t-22 34 t-11 46.5zM1145 309h231l68 324z" />
<glyph unicode="&#xbd;" horiz-adv-x="1691" d="M82 637q0 10 5 27.5t13 25.5q9 17 24.5 24t47.5 7h121l96 420q-46 -43 -104 -43q-46 0 -72.5 24.5t-26.5 63.5q0 19 5.5 36t13.5 28t16.5 18.5t15 11t7.5 2.5q34 -43 88 -43q36 0 70 26t51 68h61q70 0 55 -78l-123 -534h113q32 0 49.5 -14t14.5 -39q0 -9 -5.5 -27 t-13.5 -27q-13 -30 -69 -30h-388q-68 0 -65 53zM147 20q6 27 20 47t54 60q17 18 101 99t214 205.5t216 207.5l684 659q3 3 20 -4t31.5 -27t9.5 -46q-9 -45 -74 -107q-16 -16 -103.5 -100.5t-213 -206t-215.5 -209.5l-678 -657q-7 -5 -24.5 3t-32 29t-9.5 47zM1001 96 q12 112 80 183q58 61 207 112q47 16 69 24t52 21.5t43 26t23 31t10 41.5q0 40 -35.5 65t-93.5 25q-114 0 -166 -121q-3 -3 -25 0t-45.5 21.5t-23.5 54.5q0 54 49 100q81 78 231 78q122 0 194 -57.5t72 -155.5q0 -56 -19 -98t-58.5 -70.5t-80 -46.5t-104.5 -37 q-60 -19 -85 -28t-59 -26.5t-54 -37.5q-28 -28 -37 -70h340q84 0 84 -55q0 -16 -7.5 -34.5t-15 -30t-8.5 -11.5h-475q-33 0 -50 26.5t-12 69.5z" />
<glyph unicode="&#xbe;" horiz-adv-x="1691" d="M53 737q0 26 10.5 45.5t25 28t30 14.5t26 4.5t11.5 -2.5q11 -63 56 -97t122 -34q73 0 113 34.5t40 88.5q0 41 -29.5 65.5t-86.5 24.5h-37q-60 0 -60 45q0 40 21 58q13 18 70 18h45q135 0 135 96q0 38 -36 63t-93 25q-115 0 -172 -100q-1 -1 -10 -2t-22 3.5t-25.5 11 t-21.5 21t-9 34.5q0 41 37 78q81 81 233 81q120 0 198 -53t78 -137q0 -74 -42.5 -122.5t-127.5 -65.5q113 -43 113 -154q0 -46 -16.5 -87t-51.5 -76.5t-97.5 -56t-145.5 -20.5q-81 0 -142 20.5t-94 53.5q-45 42 -45 94zM197 20q6 27 20 47.5t53 59.5q17 18 101 99t214 205.5 t216 207.5l684 659q3 3 20 -4t31.5 -27t9.5 -46q-10 -46 -73 -107q-15 -15 -103.5 -100t-214 -206t-215.5 -210l-678 -657q-7 -5 -24 3t-31.5 29t-9.5 47zM1006 276q0 26 13.5 50.5t47.5 64.5l274 295q34 39 59.5 51.5t80.5 12.5q68 0 93.5 -26t12.5 -85l-69 -328h57 q61 0 61 -43q0 -14 -6.5 -35t-17.5 -32q-17 -17 -56 -17h-65l-25 -114q-9 -43 -25 -60.5t-44 -17.5h-21q-34 0 -51 19.5t-6 60.5l22 112h-286q-5 0 -16 11.5t-22 34t-11 46.5zM1145 309h231l68 324z" />
<glyph unicode="&#xbf;" horiz-adv-x="1050" d="M51 334q0 69 22 125.5t52.5 92.5t79 66.5t86 45.5t88.5 32q96 31 146 77t59 91l18 82h184q-4 -16 -22 -100q-21 -98 -79.5 -167.5t-178.5 -109.5q-131 -43 -188.5 -92t-57.5 -137q0 -86 64 -142.5t172 -56.5q106 0 183.5 61.5t115.5 164.5q1 6 30.5 -0.5t58.5 -31.5 t29 -63q0 -86 -84 -170q-133 -133 -346 -133q-195 0 -313.5 103.5t-118.5 261.5zM590 1174q0 89 43 129q28 32 98 32q57 0 87 -22.5t30 -63.5q0 -88 -41 -129q-33 -33 -100 -33q-57 0 -87 22.5t-30 64.5z" />
<glyph unicode="&#xc0;" horiz-adv-x="1361" d="M-68 0l762 1274q21 36 49.5 50.5t85.5 14.5q69 0 98.5 -19t37.5 -58l249 -1262h-215l-75 389h-533l-223 -389h-236zM477 559h426l-102 559zM541 1716q0 37 27 62.5t65 25.5q49 0 100 -41q56 -42 111 -109.5t82.5 -117.5t21.5 -59q-8 -10 -60.5 -1t-131 41t-140.5 78 q-75 55 -75 121z" />
<glyph unicode="&#xc1;" horiz-adv-x="1361" d="M-68 0l762 1274q21 36 49.5 50.5t85.5 14.5q69 0 98.5 -19t37.5 -58l249 -1262h-215l-75 389h-533l-223 -389h-236zM477 559h426l-102 559zM735 1477q-5 8 35.5 58.5t110.5 115.5t133 102q51 31 100 31q39 0 63.5 -25t24.5 -61q0 -63 -94 -119q-45 -26 -98.5 -47t-98 -33 t-86.5 -20t-63 -7t-27 5z" />
<glyph unicode="&#xc2;" horiz-adv-x="1361" d="M-68 0l762 1274q21 36 49.5 50.5t85.5 14.5q69 0 98.5 -19t37.5 -58l249 -1262h-215l-75 389h-533l-223 -389h-236zM477 559h426l-102 559zM565 1518q0 70 135 180q63 52 126 91t85 42q15 -3 60 -43t82 -86q84 -103 84 -162q0 -36 -20.5 -58t-51.5 -22q-32 0 -61.5 29.5 t-65.5 93.5q-5 9 -23 41t-28 53q-62 -70 -88 -96q-108 -121 -174 -121q-28 0 -44 17t-16 41z" />
<glyph unicode="&#xc3;" horiz-adv-x="1361" d="M-68 0l762 1274q21 36 49.5 50.5t85.5 14.5q69 0 98.5 -19t37.5 -58l249 -1262h-215l-75 389h-533l-223 -389h-236zM477 559h426l-102 559zM539 1530q0 79 58 144t126 65q57 0 130.5 -40.5t145.5 -113.5q65 141 121 141q31 0 48.5 -17t17.5 -42q0 -79 -58.5 -144 t-126.5 -65q-57 0 -130.5 40.5t-145.5 113.5q-65 -142 -121 -142q-31 0 -48 17.5t-17 42.5z" />
<glyph unicode="&#xc4;" horiz-adv-x="1361" d="M-68 0l762 1274q21 36 49.5 50.5t85.5 14.5q69 0 98.5 -19t37.5 -58l249 -1262h-215l-75 389h-533l-223 -389h-236zM477 559h426l-102 559zM549 1556q0 60 35.5 101t93.5 41t88.5 -26.5t30.5 -72.5q0 -60 -35 -100.5t-92 -40.5q-59 0 -90 26t-31 72zM924 1556 q0 60 35.5 101t93.5 41q59 0 90 -26t31 -73q0 -60 -35.5 -100.5t-94.5 -40.5t-89.5 25.5t-30.5 72.5z" />
<glyph unicode="&#xc5;" horiz-adv-x="1361" d="M-68 0l734 1227q0 2 2 4l26 43l4 4q-84 59 -84 166q0 112 78 194t195 82q104 0 168.5 -59t64.5 -150q0 -79 -43 -148t-112 -103l10 -48h-2l241 -1212h-215l-75 389h-533l-223 -389h-236zM477 559h426l-102 559zM739 1452q0 -47 31.5 -80t81.5 -33q63 0 103 48t40 110 q0 48 -31.5 80.5t-80.5 32.5q-63 0 -103.5 -48t-40.5 -110z" />
<glyph unicode="&#xc6;" horiz-adv-x="1828" d="M14 92q0 44 49 129l611 1018q27 45 60.5 65.5t94.5 20.5h940q93 0 93 -59q0 -23 -10.5 -56t-26.5 -49q-20 -22 -82 -22h-758l76 -373h455q86 0 86 -55q0 -21 -9.5 -53t-23.5 -48q-25 -22 -78 -22h-395l80 -402h385q92 0 92 -57q0 -24 -10.5 -56t-26.5 -50 q-23 -23 -82 -23h-416q-68 0 -100.5 24.5t-42.5 88.5l-51 276h-533l-227 -399q-1 -2 -16.5 -2.5t-37.5 3.5t-43.5 13.5t-37 32.5t-15.5 55zM477 559h426l-102 559z" />
<glyph unicode="&#xc7;" horiz-adv-x="1398" d="M147 553q0 159 57 305t154.5 254.5t237 173t295.5 64.5q265 0 407 -146q42 -40 64 -86t22 -80q0 -49 -33 -79t-66 -37t-40 0q-89 241 -356 241q-145 0 -265 -80t-187.5 -213.5t-67.5 -289.5q0 -189 110.5 -302.5t288.5 -113.5q126 0 224 51t157 143q4 5 29.5 -3.5 t51 -35.5t25.5 -65q0 -58 -65 -123q-66 -66 -181 -111t-249 -45q-279 0 -446 156t-167 422zM469 -424l209 332q2 0 17.5 1t39 -5t45.5 -14.5t38 -27t16 -42.5q0 -54 -66 -111l-215 -188q-15 -8 -37.5 -1.5t-39 24t-7.5 32.5z" />
<glyph unicode="&#xc8;" horiz-adv-x="1271" d="M70 0l258 1208q22 117 137 117h866q1 0 -9 -46.5t-20 -92.5l-10 -47h-768l-80 -373h623l-37 -178h-624l-84 -402h780l-39 -186h-993zM598 1716q0 37 27 62.5t65 25.5q50 0 101 -41q56 -42 111 -109.5t82.5 -117.5t21.5 -59q-8 -10 -60.5 -1t-131 41t-140.5 78 q-76 56 -76 121z" />
<glyph unicode="&#xc9;" horiz-adv-x="1271" d="M70 0l258 1208q22 117 137 117h866q1 0 -9 -46.5t-20 -92.5l-10 -47h-768l-80 -373h623l-37 -178h-624l-84 -402h780l-39 -186h-993zM723 1477q-5 9 35 59t110 115t133 102q51 31 101 31q39 0 63.5 -25t24.5 -61q0 -63 -94 -119q-45 -26 -98.5 -47t-98 -33t-86.5 -20 t-63 -7t-27 5z" />
<glyph unicode="&#xca;" horiz-adv-x="1271" d="M70 0l258 1208q22 117 137 117h866q1 0 -9 -46.5t-20 -92.5l-10 -47h-768l-80 -373h623l-37 -178h-624l-84 -402h780l-39 -186h-993zM588 1518q0 70 135 180q63 52 126 91t85 42q15 -3 59.5 -42.5t81.5 -86.5q84 -103 84 -162q0 -36 -20.5 -58t-51.5 -22t-60.5 29 t-65.5 94q-5 10 -23.5 41.5t-28.5 52.5q-62 -70 -88 -96q-108 -121 -174 -121q-28 0 -43.5 16.5t-15.5 41.5z" />
<glyph unicode="&#xcb;" horiz-adv-x="1271" d="M70 0l258 1208q22 117 137 117h866q1 0 -9 -46.5t-20 -92.5l-10 -47h-768l-80 -373h623l-37 -178h-624l-84 -402h780l-39 -186h-993zM555 1556q0 60 35.5 101t93.5 41t88.5 -26.5t30.5 -72.5q0 -60 -35 -100.5t-92 -40.5q-59 0 -90 26t-31 72zM930 1556q0 60 35.5 101 t93.5 41q59 0 90 -26t31 -73q0 -60 -35 -100.5t-94 -40.5t-90 26t-31 72z" />
<glyph unicode="&#xcc;" horiz-adv-x="600" d="M90 0l283 1325h211l-283 -1325h-211zM190 1716q0 37 27.5 62.5t65.5 25.5q49 0 100 -41q56 -42 111 -109.5t82.5 -117.5t21.5 -59q-8 -10 -60.5 -1t-131 41t-140.5 78q-76 56 -76 121z" />
<glyph unicode="&#xcd;" horiz-adv-x="600" d="M90 0l283 1325h211l-283 -1325h-211zM395 1477q-5 8 35.5 58.5t110.5 115.5t133 102q51 31 100 31q39 0 63.5 -25t24.5 -61q0 -63 -94 -119q-45 -26 -98.5 -47t-98 -33t-86.5 -20t-63 -7t-27 5z" />
<glyph unicode="&#xce;" horiz-adv-x="600" d="M90 0l283 1325h211l-283 -1325h-211zM223 1518q0 70 135 180q63 52 126 91t85 42q15 -3 60 -43t82 -86q84 -103 84 -162q0 -36 -20.5 -58t-51.5 -22q-32 0 -61.5 29.5t-65.5 93.5q-5 9 -23 41t-28 53q-62 -70 -88 -96q-108 -121 -174 -121q-28 0 -44 17t-16 41z" />
<glyph unicode="&#xcf;" horiz-adv-x="600" d="M90 0l283 1325h211l-283 -1325h-211zM207 1556q0 60 35.5 101t93.5 41t88.5 -26.5t30.5 -72.5q0 -60 -35 -100.5t-92 -40.5q-59 0 -90 26t-31 72zM582 1556q0 60 35.5 101t93.5 41q59 0 89.5 -26t30.5 -73q0 -60 -35 -100.5t-94 -40.5t-89.5 25.5t-30.5 72.5z" />
<glyph unicode="&#xd0;" horiz-adv-x="1513" d="M94 633q0 21 8.5 49.5t22.5 42.5q21 18 65 18h115l101 465q18 117 137 117h239q307 0 479.5 -145.5t172.5 -405.5q0 -128 -32.5 -242.5t-100 -212t-164.5 -168.5t-233 -111t-298 -40h-319q-138 0 -111 137l96 447h-106q-72 0 -72 49zM397 182h240q144 0 256.5 45 t182 123.5t105.5 178.5t36 216q0 187 -119 292.5t-332 105.5h-166l-84 -400h346q78 0 78 -49q0 -20 -8.5 -48t-22.5 -42q-20 -20 -69 -20h-359z" />
<glyph unicode="&#xd1;" horiz-adv-x="1466" d="M72 0l256 1212q25 121 129 121h35q40 0 64 -19t48 -65l453 -932l215 1008h196l-260 -1221q-22 -112 -121 -112h-16q-38 0 -62.5 19t-50.5 65l-469 966l-221 -1042h-196zM641 1530q0 79 58 144t126 65q57 0 131 -40.5t146 -113.5q65 141 121 141q31 0 48 -17t17 -42 q0 -79 -58 -144t-126 -65q-57 0 -131 40.5t-146 113.5q-65 -142 -120 -142q-31 0 -48.5 17.5t-17.5 42.5z" />
<glyph unicode="&#xd2;" horiz-adv-x="1566" d="M150 555q0 166 59.5 315t160 254t236 166.5t283.5 61.5q184 0 322 -78t208 -208.5t70 -293.5q0 -166 -60 -314.5t-160.5 -253.5t-236 -166t-282.5 -61q-185 0 -323 77.5t-207.5 207.5t-69.5 293zM365 569q0 -176 107 -291.5t294 -115.5q95 0 186 44.5t162 121.5 t114.5 190t43.5 240q0 176 -106.5 291.5t-293.5 115.5q-96 0 -187.5 -44.5t-162 -121.5t-114 -190t-43.5 -240zM664 1716q0 37 27 62.5t65 25.5q49 0 100 -41q56 -42 111 -109.5t82.5 -117.5t21.5 -59q-8 -10 -60.5 -1t-131 41t-140.5 78q-75 55 -75 121z" />
<glyph unicode="&#xd3;" horiz-adv-x="1566" d="M150 555q0 166 59.5 315t160 254t236 166.5t283.5 61.5q184 0 322 -78t208 -208.5t70 -293.5q0 -166 -60 -314.5t-160.5 -253.5t-236 -166t-282.5 -61q-185 0 -323 77.5t-207.5 207.5t-69.5 293zM365 569q0 -176 107 -291.5t294 -115.5q95 0 186 44.5t162 121.5 t114.5 190t43.5 240q0 176 -106.5 291.5t-293.5 115.5q-96 0 -187.5 -44.5t-162 -121.5t-114 -190t-43.5 -240zM768 1477q-5 8 35.5 58.5t110.5 115.5t133 102q51 31 100 31q39 0 63.5 -25t24.5 -61q0 -63 -94 -119q-45 -26 -98.5 -47t-98 -33t-86.5 -20t-63 -7t-27 5z" />
<glyph unicode="&#xd4;" horiz-adv-x="1566" d="M150 555q0 166 59.5 315t160 254t236 166.5t283.5 61.5q184 0 322 -78t208 -208.5t70 -293.5q0 -166 -60 -314.5t-160.5 -253.5t-236 -166t-282.5 -61q-185 0 -323 77.5t-207.5 207.5t-69.5 293zM365 569q0 -176 107 -291.5t294 -115.5q95 0 186 44.5t162 121.5 t114.5 190t43.5 240q0 176 -106.5 291.5t-293.5 115.5q-96 0 -187.5 -44.5t-162 -121.5t-114 -190t-43.5 -240zM662 1518q0 70 135 180q63 52 126 91t85 42q15 -3 59.5 -42.5t81.5 -86.5q84 -103 84 -162q0 -36 -20.5 -58t-51.5 -22q-32 0 -61.5 29.5t-65.5 93.5 q-5 9 -23 41t-28 53q-62 -70 -88 -96q-108 -121 -174 -121q-28 0 -43.5 16.5t-15.5 41.5z" />
<glyph unicode="&#xd5;" horiz-adv-x="1566" d="M150 555q0 166 59.5 315t160 254t236 166.5t283.5 61.5q184 0 322 -78t208 -208.5t70 -293.5q0 -166 -60 -314.5t-160.5 -253.5t-236 -166t-282.5 -61q-185 0 -323 77.5t-207.5 207.5t-69.5 293zM365 569q0 -176 107 -291.5t294 -115.5q95 0 186 44.5t162 121.5 t114.5 190t43.5 240q0 176 -106.5 291.5t-293.5 115.5q-96 0 -187.5 -44.5t-162 -121.5t-114 -190t-43.5 -240zM621 1530q0 79 58 144t126 65q57 0 130.5 -40.5t145.5 -113.5q65 141 121 141q31 0 48.5 -17t17.5 -42q0 -79 -58.5 -144t-126.5 -65q-57 0 -130.5 40.5 t-145.5 113.5q-65 -142 -121 -142q-31 0 -48 17.5t-17 42.5z" />
<glyph unicode="&#xd6;" horiz-adv-x="1566" d="M150 555q0 166 59.5 315t160 254t236 166.5t283.5 61.5q184 0 322 -78t208 -208.5t70 -293.5q0 -166 -60 -314.5t-160.5 -253.5t-236 -166t-282.5 -61q-185 0 -323 77.5t-207.5 207.5t-69.5 293zM365 569q0 -176 107 -291.5t294 -115.5q95 0 186 44.5t162 121.5 t114.5 190t43.5 240q0 176 -106.5 291.5t-293.5 115.5q-96 0 -187.5 -44.5t-162 -121.5t-114 -190t-43.5 -240zM649 1556q0 60 35.5 101t93.5 41t88.5 -26.5t30.5 -72.5q0 -60 -35 -100.5t-92 -40.5q-59 0 -90 26t-31 72zM1024 1556q0 60 35.5 101t93.5 41q59 0 90 -26 t31 -73q0 -60 -35 -100.5t-94 -40.5t-90 26t-31 72z" />
<glyph unicode="&#xd7;" horiz-adv-x="1187" d="M152 221q0 43 38 76l302 254l-189 246q-24 33 -24 61q0 26 29 54t59 28q38 0 69 -39l182 -246l293 248q34 31 70 31q24 0 52 -30.5t28 -53.5q0 -42 -39 -76l-299 -252l188 -248q27 -38 27 -61q0 -26 -29 -54t-59 -28q-43 0 -70 39l-186 246l-293 -248q-34 -31 -70 -31 q-24 0 -51.5 30.5t-27.5 53.5z" />
<glyph unicode="&#xd8;" horiz-adv-x="1566" d="M23 14q0 52 59 105l149 131q-81 138 -81 305q0 166 59.5 315t160 254t236 166.5t283.5 61.5q251 0 416 -152l204 184q6 4 25 -6.5t37 -33t18 -46.5q0 -48 -59 -104l-127 -113q86 -141 86 -309q0 -166 -60 -314.5t-160.5 -253.5t-236 -166t-282.5 -61q-255 0 -422 154 l-226 -201q-6 -4 -24.5 6t-36.5 32t-18 46zM360 569q0 -103 33 -182l762 682q-111 100 -283 100q-97 0 -189.5 -45t-164 -123t-115 -191.5t-43.5 -240.5zM477 262q107 -104 289 -104q96 0 188.5 45t163.5 123t114.5 191.5t43.5 240.5q0 105 -37 186z" />
<glyph unicode="&#xd9;" horiz-adv-x="1396" d="M180 596l135 641q12 50 37 73t70 23h29q46 0 65.5 -27.5t9.5 -76.5l-137 -649q-43 -206 31.5 -312t259.5 -106q280 0 356 358l154 717q11 50 35 73t69 23h27q45 0 65.5 -27.5t10.5 -74.5l-156 -737q-112 -519 -579 -519q-289 0 -418 159t-64 462zM616 1700 q0 37 27.5 62.5t65.5 25.5q49 0 100 -41q56 -42 111 -109.5t82.5 -118t21.5 -59.5q-8 -10 -60.5 -0.5t-131 41.5t-140.5 78q-76 56 -76 121z" />
<glyph unicode="&#xda;" horiz-adv-x="1396" d="M180 596l135 641q12 50 37 73t70 23h29q46 0 65.5 -27.5t9.5 -76.5l-137 -649q-43 -206 31.5 -312t259.5 -106q280 0 356 358l154 717q11 50 35 73t69 23h27q45 0 65.5 -27.5t10.5 -74.5l-156 -737q-112 -519 -579 -519q-289 0 -418 159t-64 462zM723 1460q-5 9 35 59.5 t110 115.5t133 102q49 30 101 30q39 0 63.5 -25t24.5 -61q0 -62 -94 -118q-45 -26 -98.5 -47t-98 -33t-86.5 -20.5t-63 -7.5t-27 5z" />
<glyph unicode="&#xdb;" horiz-adv-x="1396" d="M180 596l135 641q12 50 37 73t70 23h29q46 0 65.5 -27.5t9.5 -76.5l-137 -649q-43 -206 31.5 -312t259.5 -106q280 0 356 358l154 717q11 50 35 73t69 23h27q45 0 65.5 -27.5t10.5 -74.5l-156 -737q-112 -519 -579 -519q-289 0 -418 159t-64 462zM612 1501q0 69 136 180 q64 52 126.5 91.5t83.5 42.5q15 -3 60 -43t82 -86q84 -103 84 -162q0 -36 -20.5 -58t-51.5 -22q-32 0 -61.5 29.5t-65.5 93.5q-5 9 -23 41t-28 53q-62 -70 -88 -96q-108 -121 -174 -121q-28 0 -44 16.5t-16 40.5z" />
<glyph unicode="&#xdc;" horiz-adv-x="1396" d="M180 596l135 641q12 50 37 73t70 23h29q46 0 65.5 -27.5t9.5 -76.5l-137 -649q-43 -206 31.5 -312t259.5 -106q280 0 356 358l154 717q11 50 35 73t69 23h27q45 0 65.5 -27.5t10.5 -74.5l-156 -737q-112 -519 -579 -519q-289 0 -418 159t-64 462zM598 1540q0 60 35 100.5 t94 40.5q58 0 88.5 -26t30.5 -72q0 -60 -35 -100.5t-92 -40.5q-59 0 -90 26t-31 72zM973 1540q0 60 35 100.5t94 40.5t90 -26t31 -72q0 -60 -35 -100.5t-94 -40.5t-90 26t-31 72z" />
<glyph unicode="&#xdd;" horiz-adv-x="1239" d="M180 1325h221l258 -606l525 622q1 1 14 -1t31.5 -8.5t37 -17t31.5 -31.5t13 -48q0 -53 -72 -133l-502 -565l-112 -537h-213l116 547zM670 1460q-5 9 35 59.5t110 115.5t133 102q49 30 101 30q39 0 63.5 -25t24.5 -61q0 -62 -95 -118q-45 -26 -98.5 -47t-98 -33t-86 -20.5 t-62.5 -7.5t-27 5z" />
<glyph unicode="&#xde;" horiz-adv-x="1247" d="M90 96l242 1141q12 50 36.5 73t69.5 23h33q43 0 63.5 -25t10.5 -69l-33 -152h205q225 0 345 -92t120 -264q0 -231 -141.5 -357t-409.5 -126h-297l-35 -168q-9 -46 -33 -67t-69 -21h-31q-45 0 -65.5 26.5t-10.5 77.5zM371 418h284q151 0 234.5 76.5t83.5 212.5 q0 206 -271 206h-227z" />
<glyph unicode="&#xdf;" horiz-adv-x="1200" d="M55 0l205 961q50 237 171 348.5t312 111.5q196 0 308 -87.5t112 -229.5q0 -148 -95 -235.5t-284 -102.5q137 -38 220 -128.5t83 -215.5q0 -191 -122.5 -319t-300.5 -128q-166 0 -244 78q-41 41 -41 88q0 34 20 61.5t39.5 38.5t22.5 7q30 -49 74 -78t118 -29q100 0 169 75 t69 192q0 158 -211 229q-52 21 -75 45t-23 63q0 45 19.5 80t39.5 49q168 0 246 48t78 161q0 78 -63 125t-163 47q-216 0 -280 -305l-201 -950h-203z" />
<glyph unicode="&#xe0;" d="M94 387q0 115 41.5 227.5t112.5 200t175.5 141.5t221.5 54q113 0 202 -51.5t132 -139.5l39 166h196l-159 -760q-17 -76 0 -108.5t80 -38.5l1 -5q1 -5 -2 -14t-7 -19t-13.5 -20.5t-22 -18.5t-32.5 -13.5t-45 -5.5q-93 0 -134 53t-32 149q-63 -101 -159.5 -155t-209.5 -54 q-166 0 -275.5 110t-109.5 302zM295 406q0 -121 69 -192t171 -71q133 0 237.5 95.5t132.5 234.5l33 154q-68 219 -281 219q-108 0 -192.5 -66t-127 -165.5t-42.5 -208.5zM463 1376q0 37 27 62.5t65 25.5q49 0 100 -41q56 -42 111 -109.5t82.5 -117.5t21.5 -59q-8 -10 -60 -1 t-130.5 41t-140.5 78q-76 56 -76 121z" />
<glyph unicode="&#xe1;" d="M94 387q0 115 41.5 227.5t112.5 200t175.5 141.5t221.5 54q113 0 202 -51.5t132 -139.5l39 166h196l-159 -760q-17 -76 0 -108.5t80 -38.5l1 -5q1 -5 -2 -14t-7 -19t-13.5 -20.5t-22 -18.5t-32.5 -13.5t-45 -5.5q-93 0 -134 53t-32 149q-63 -101 -159.5 -155t-209.5 -54 q-166 0 -275.5 110t-109.5 302zM295 406q0 -121 69 -192t171 -71q133 0 237.5 95.5t132.5 234.5l33 154q-68 219 -281 219q-108 0 -192.5 -66t-127 -165.5t-42.5 -208.5zM612 1137q-5 8 35.5 58.5t110.5 115.5t133 102q51 31 100 31q39 0 63.5 -25t24.5 -61q0 -63 -94 -119 q-45 -26 -98.5 -47t-98 -33t-86.5 -20t-63 -7t-27 5z" />
<glyph unicode="&#xe2;" d="M94 387q0 115 41.5 227.5t112.5 200t175.5 141.5t221.5 54q113 0 202 -51.5t132 -139.5l39 166h196l-159 -760q-17 -76 0 -108.5t80 -38.5l1 -5q1 -5 -2 -14t-7 -19t-13.5 -20.5t-22 -18.5t-32.5 -13.5t-45 -5.5q-93 0 -134 53t-32 149q-63 -101 -159.5 -155t-209.5 -54 q-166 0 -275.5 110t-109.5 302zM295 406q0 -121 69 -192t171 -71q133 0 237.5 95.5t132.5 234.5l33 154q-68 219 -281 219q-108 0 -192.5 -66t-127 -165.5t-42.5 -208.5zM481 1178q0 70 135 180q63 52 126 91t85 42q15 -3 60 -43t82 -86q84 -103 84 -162q0 -36 -20.5 -58 t-51.5 -22q-32 0 -61.5 29.5t-65.5 93.5q-5 9 -23 41t-28 53q-62 -70 -88 -96q-108 -121 -174 -121q-28 0 -44 17t-16 41z" />
<glyph unicode="&#xe3;" d="M94 387q0 115 41.5 227.5t112.5 200t175.5 141.5t221.5 54q113 0 202 -51.5t132 -139.5l39 166h196l-159 -760q-17 -76 0 -108.5t80 -38.5l1 -5q1 -5 -2 -14t-7 -19t-13.5 -20.5t-22 -18.5t-32.5 -13.5t-45 -5.5q-93 0 -134 53t-32 149q-63 -101 -159.5 -155t-209.5 -54 q-166 0 -275.5 110t-109.5 302zM295 406q0 -121 69 -192t171 -71q133 0 237.5 95.5t132.5 234.5l33 154q-68 219 -281 219q-108 0 -192.5 -66t-127 -165.5t-42.5 -208.5zM453 1190q0 79 58 144t126 65q57 0 130.5 -40.5t145.5 -113.5q65 141 121 141q31 0 48.5 -17t17.5 -42 q0 -79 -58.5 -144t-126.5 -65q-57 0 -130.5 40.5t-145.5 113.5q-65 -142 -121 -142q-31 0 -48 17.5t-17 42.5z" />
<glyph unicode="&#xe4;" d="M94 387q0 115 41.5 227.5t112.5 200t175.5 141.5t221.5 54q113 0 202 -51.5t132 -139.5l39 166h196l-159 -760q-17 -76 0 -108.5t80 -38.5l1 -5q1 -5 -2 -14t-7 -19t-13.5 -20.5t-22 -18.5t-32.5 -13.5t-45 -5.5q-93 0 -134 53t-32 149q-63 -101 -159.5 -155t-209.5 -54 q-166 0 -275.5 110t-109.5 302zM295 406q0 -121 69 -192t171 -71q133 0 237.5 95.5t132.5 234.5l33 154q-68 219 -281 219q-108 0 -192.5 -66t-127 -165.5t-42.5 -208.5zM465 1217q0 60 35 100.5t94 40.5q58 0 88.5 -26t30.5 -72q0 -60 -35 -101t-92 -41q-59 0 -90 26 t-31 73zM840 1217q0 60 35 100.5t94 40.5t90 -26t31 -72q0 -60 -35.5 -101t-93.5 -41q-59 0 -90 26t-31 73z" />
<glyph unicode="&#xe5;" d="M94 387q0 115 41.5 227.5t112.5 200t175.5 141.5t221.5 54q113 0 202 -51.5t132 -139.5l39 166h196l-159 -760q-17 -76 0 -108.5t80 -38.5l1 -5q1 -5 -2 -14t-7 -19t-13.5 -20.5t-22 -18.5t-32.5 -13.5t-45 -5.5q-93 0 -134 53t-32 149q-63 -101 -159.5 -155t-209.5 -54 q-166 0 -275.5 110t-109.5 302zM295 406q0 -121 69 -192t171 -71q133 0 237.5 95.5t132.5 234.5l33 154q-68 219 -281 219q-108 0 -192.5 -66t-127 -165.5t-42.5 -208.5zM549 1333q0 112 77.5 195.5t194.5 83.5q104 0 168 -59t64 -152q0 -113 -78 -196t-195 -83 q-103 0 -167 59t-64 152zM672 1346q0 -48 31.5 -81.5t80.5 -33.5q65 0 105.5 48t40.5 110q0 48 -32.5 81t-82.5 33q-63 0 -103 -47.5t-40 -109.5z" />
<glyph unicode="&#xe6;" horiz-adv-x="1812" d="M53 225q0 189 169 274t564 91h25l2 8q24 117 -35.5 182.5t-197.5 65.5q-110 0 -179.5 -35.5t-117.5 -112.5q-1 -1 -11 1t-24.5 7.5t-29 15.5t-24.5 28t-10 41q0 33 24.5 70t71.5 71t129 56t183 22q145 0 239 -56.5t123 -160.5q78 104 190.5 160.5t250.5 56.5 q174 0 272 -74.5t98 -198.5q0 -78 -28 -134.5t-92 -99t-176.5 -64t-274.5 -21.5q-89 0 -236 10v-37q0 -119 70.5 -189.5t200.5 -70.5q199 0 315 154q3 4 25 -2.5t44.5 -28.5t22.5 -53t-10.5 -53t-38.5 -50q-126 -123 -360 -123q-155 0 -253 60t-138 164q-134 -224 -430 -224 q-166 0 -259.5 66.5t-93.5 183.5zM252 248q0 -56 53 -91.5t141 -35.5q116 0 205.5 71t114.5 179l20 96l-57 -2q-187 -6 -292.5 -32t-145 -69.5t-39.5 -115.5zM991 569q88 -10 185 -10q405 0 405 172q0 53 -51 90t-144 37q-131 0 -237.5 -81t-157.5 -208z" />
<glyph unicode="&#xe7;" horiz-adv-x="1126" d="M90 430q0 113 44 219t118 185.5t179 127.5t220 48q225 0 346 -125q80 -80 80 -164q0 -32 -13.5 -56t-33.5 -34.5t-39.5 -15.5t-33.5 -4t-15 5q-20 101 -93 162.5t-192 61.5q-107 0 -193 -58t-131.5 -148t-45.5 -190q0 -133 81 -216t218 -83q181 0 284 166q3 4 28 -2.5 t50 -29t25 -56.5q0 -55 -66 -121q-57 -55 -145.5 -91t-194.5 -36q-208 0 -342.5 122.5t-134.5 332.5zM281 -424l208 332q2 0 17.5 1t39 -5t45.5 -14.5t38 -27t16 -42.5q0 -55 -65 -111l-215 -188q-15 -8 -37.5 -1.5t-39 24t-7.5 32.5z" />
<glyph unicode="&#xe8;" horiz-adv-x="1124" d="M86 385q0 132 48.5 248.5t131.5 199t197.5 130t243.5 47.5q174 0 272 -74.5t98 -198.5q0 -78 -28 -134.5t-92 -99t-176.5 -64t-274.5 -21.5q-89 0 -236 10v-37q0 -119 70.5 -189.5t200.5 -70.5q199 0 315 154q3 4 25 -2.5t44.5 -28.5t22.5 -53t-10.5 -53t-38.5 -50 q-126 -123 -362 -123q-217 0 -334 113t-117 297zM303 569q87 -10 184 -10q406 0 406 172q0 53 -51 90t-144 37q-131 0 -237.5 -81t-157.5 -208zM440 1376q0 37 27 62.5t65 25.5q50 0 101 -41q56 -42 111 -109.5t82.5 -117.5t21.5 -59q-8 -10 -60.5 -1t-131 41t-140.5 78 q-76 56 -76 121z" />
<glyph unicode="&#xe9;" horiz-adv-x="1124" d="M86 385q0 132 48.5 248.5t131.5 199t197.5 130t243.5 47.5q174 0 272 -74.5t98 -198.5q0 -78 -28 -134.5t-92 -99t-176.5 -64t-274.5 -21.5q-89 0 -236 10v-37q0 -119 70.5 -189.5t200.5 -70.5q199 0 315 154q3 4 25 -2.5t44.5 -28.5t22.5 -53t-10.5 -53t-38.5 -50 q-126 -123 -362 -123q-217 0 -334 113t-117 297zM303 569q87 -10 184 -10q406 0 406 172q0 53 -51 90t-144 37q-131 0 -237.5 -81t-157.5 -208zM586 1137q-5 9 35 59t110 115t133 102q51 31 101 31q39 0 63.5 -25t24.5 -61q0 -63 -95 -119q-45 -26 -98.5 -47t-98 -33 t-86 -20t-62.5 -7t-27 5z" />
<glyph unicode="&#xea;" horiz-adv-x="1124" d="M86 385q0 132 48.5 248.5t131.5 199t197.5 130t243.5 47.5q174 0 272 -74.5t98 -198.5q0 -78 -28 -134.5t-92 -99t-176.5 -64t-274.5 -21.5q-89 0 -236 10v-37q0 -119 70.5 -189.5t200.5 -70.5q199 0 315 154q3 4 25 -2.5t44.5 -28.5t22.5 -53t-10.5 -53t-38.5 -50 q-126 -123 -362 -123q-217 0 -334 113t-117 297zM303 569q87 -10 184 -10q406 0 406 172q0 53 -51 90t-144 37q-131 0 -237.5 -81t-157.5 -208zM461 1178q0 70 135 180q63 52 126 91t85 42q15 -3 59.5 -42.5t81.5 -86.5q84 -103 84 -162q0 -36 -20 -58t-51 -22 q-32 0 -61.5 29.5t-65.5 93.5q-5 10 -23.5 41.5t-28.5 52.5q-62 -70 -88 -96q-108 -121 -174 -121q-28 0 -43.5 16.5t-15.5 41.5z" />
<glyph unicode="&#xeb;" horiz-adv-x="1124" d="M86 385q0 132 48.5 248.5t131.5 199t197.5 130t243.5 47.5q174 0 272 -74.5t98 -198.5q0 -78 -28 -134.5t-92 -99t-176.5 -64t-274.5 -21.5q-89 0 -236 10v-37q0 -119 70.5 -189.5t200.5 -70.5q199 0 315 154q3 4 25 -2.5t44.5 -28.5t22.5 -53t-10.5 -53t-38.5 -50 q-126 -123 -362 -123q-217 0 -334 113t-117 297zM303 569q87 -10 184 -10q406 0 406 172q0 53 -51 90t-144 37q-131 0 -237.5 -81t-157.5 -208zM444 1217q0 60 35 100.5t94 40.5q58 0 88.5 -26t30.5 -72q0 -60 -35 -101t-92 -41q-59 0 -90 26t-31 73zM819 1217 q0 60 35 100.5t94 40.5t90 -26t31 -72q0 -60 -35.5 -101t-93.5 -41q-59 0 -90 26t-31 73z" />
<glyph unicode="&#xec;" horiz-adv-x="540" d="M113 227l161 758h201l-160 -760q-17 -78 1.5 -110.5t86.5 -36.5l1 -5q1 -5 -2 -14t-7 -19t-14.5 -20.5t-23 -18.5t-34 -13.5t-47.5 -5.5q-110 0 -149 64t-14 181zM119 1376q0 37 27 62.5t65 25.5q49 0 100 -41q56 -42 111 -109.5t82.5 -117.5t21.5 -59q-8 -10 -60 -1 t-130.5 41t-140.5 78q-76 56 -76 121z" />
<glyph unicode="&#xed;" horiz-adv-x="540" d="M113 227l161 758h201l-160 -760q-17 -78 1.5 -110.5t86.5 -36.5l1 -5q1 -5 -2 -14t-7 -19t-14.5 -20.5t-23 -18.5t-34 -13.5t-47.5 -5.5q-110 0 -149 64t-14 181zM260 1137q-5 8 35.5 58.5t110.5 115.5t133 102q51 31 100 31q39 0 63.5 -25t24.5 -61q0 -63 -94 -119 q-45 -26 -98.5 -47t-98 -33t-86.5 -20t-63 -7t-27 5z" />
<glyph unicode="&#xee;" horiz-adv-x="540" d="M113 227l161 758h201l-160 -760q-17 -78 1.5 -110.5t86.5 -36.5l1 -5q1 -5 -2 -14t-7 -19t-14.5 -20.5t-23 -18.5t-34 -13.5t-47.5 -5.5q-110 0 -149 64t-14 181zM133 1178q0 70 135 180q63 52 126 91t85 42q15 -3 60 -43t82 -86q84 -103 84 -162q0 -36 -20.5 -58 t-51.5 -22q-32 0 -61.5 29.5t-65.5 93.5q-5 9 -23 41t-28 53q-62 -70 -88 -96q-108 -121 -174 -121q-28 0 -44 17t-16 41z" />
<glyph unicode="&#xef;" horiz-adv-x="540" d="M113 227l161 758h201l-160 -760q-17 -78 1.5 -110.5t86.5 -36.5l1 -5q1 -5 -2 -14t-7 -19t-14.5 -20.5t-23 -18.5t-34 -13.5t-47.5 -5.5q-110 0 -149 64t-14 181zM117 1217q0 60 35 100.5t94 40.5q58 0 88.5 -26t30.5 -72q0 -60 -35 -101t-92 -41q-59 0 -90 26t-31 73z M492 1217q0 60 35 100.5t94 40.5t89.5 -25.5t30.5 -72.5q0 -60 -35.5 -101t-93.5 -41q-59 0 -89.5 26t-30.5 73z" />
<glyph unicode="&#xf0;" horiz-adv-x="1222" d="M82 383q0 136 61.5 250.5t178.5 184t266 69.5q132 0 232 -55.5t143 -135.5q11 272 -160 443l-322 -164q-5 -2 -15 6.5t-19 28.5t-9 43q0 32 16.5 56.5t63.5 45.5l156 76q-125 69 -275 78q-8 0 -1 31.5t42.5 63.5t96.5 32q73 0 158.5 -32t166.5 -91l248 123q5 2 15 -6.5 t19 -28.5t9 -43q0 -32 -16.5 -57t-63.5 -46l-98 -47q105 -120 153 -282t13 -361q-17 -131 -64 -239.5t-145 -206.5q-144 -144 -367 -144q-216 0 -349.5 108t-133.5 300zM279 381q0 -115 76.5 -180.5t199.5 -65.5q137 0 238 96q99 99 139 308q-25 75 -112 134.5t-199 59.5 q-167 0 -254.5 -98.5t-87.5 -253.5z" />
<glyph unicode="&#xf1;" horiz-adv-x="1210" d="M53 0l209 983q5 10 51 10q60 0 93.5 -38.5t19.5 -129.5q58 88 143.5 136.5t186.5 48.5q155 0 244.5 -91t89.5 -235q0 -84 -60 -297q-49 -169 -49 -221q0 -40 20.5 -58.5t63.5 -23.5q0 -1 1 -10.5t-7.5 -25t-20.5 -30.5t-38 -25.5t-60 -10.5q-78 0 -120 42t-42 117 q0 62 51 254q50 169 50 238q0 95 -51.5 148t-145.5 53q-93 0 -161.5 -47.5t-129.5 -149.5l-135 -637h-203zM438 1190q0 79 58.5 144t126.5 65q57 0 130.5 -40.5t145.5 -113.5q65 141 121 141q31 0 48 -17t17 -42q0 -79 -58 -144t-126 -65q-57 0 -130.5 40.5t-145.5 113.5 q-65 -142 -121 -142q-31 0 -48.5 17.5t-17.5 42.5z" />
<glyph unicode="&#xf2;" horiz-adv-x="1204" d="M94 430q0 153 68.5 285t197.5 213.5t291 81.5q202 0 331.5 -128.5t129.5 -326.5q0 -153 -68.5 -285t-197.5 -213.5t-291 -81.5q-202 0 -331.5 128.5t-129.5 326.5zM281 438q0 -130 80.5 -215.5t201.5 -85.5q101 0 185 57t131 151t47 202q0 130 -81 215.5t-202 85.5 q-101 0 -185 -57t-130.5 -151t-46.5 -202zM416 1376q0 37 27 62.5t65 25.5q49 0 100 -41q56 -42 111 -109.5t82.5 -117.5t21.5 -59q-8 -10 -60 -1t-130.5 41t-140.5 78q-76 56 -76 121z" />
<glyph unicode="&#xf3;" horiz-adv-x="1204" d="M94 430q0 153 68.5 285t197.5 213.5t291 81.5q202 0 331.5 -128.5t129.5 -326.5q0 -153 -68.5 -285t-197.5 -213.5t-291 -81.5q-202 0 -331.5 128.5t-129.5 326.5zM281 438q0 -130 80.5 -215.5t201.5 -85.5q101 0 185 57t131 151t47 202q0 130 -81 215.5t-202 85.5 q-101 0 -185 -57t-130.5 -151t-46.5 -202zM567 1137q-5 8 35.5 58.5t110.5 115.5t133 102q51 31 100 31q39 0 63.5 -25t24.5 -61q0 -63 -94 -119q-45 -26 -98.5 -47t-98 -33t-86.5 -20t-63 -7t-27 5z" />
<glyph unicode="&#xf4;" horiz-adv-x="1204" d="M94 430q0 153 68.5 285t197.5 213.5t291 81.5q202 0 331.5 -128.5t129.5 -326.5q0 -153 -68.5 -285t-197.5 -213.5t-291 -81.5q-202 0 -331.5 128.5t-129.5 326.5zM281 438q0 -130 80.5 -215.5t201.5 -85.5q101 0 185 57t131 151t47 202q0 130 -81 215.5t-202 85.5 q-101 0 -185 -57t-130.5 -151t-46.5 -202zM428 1178q0 70 135 180q63 52 126 91t85 42q15 -3 59.5 -42.5t81.5 -86.5q84 -103 84 -162q0 -36 -20 -58t-51 -22q-32 0 -61.5 29.5t-65.5 93.5q-5 9 -23 41t-28 53q-62 -70 -88 -96q-108 -121 -175 -121q-28 0 -43.5 16.5 t-15.5 41.5z" />
<glyph unicode="&#xf5;" horiz-adv-x="1204" d="M94 430q0 153 68.5 285t197.5 213.5t291 81.5q202 0 331.5 -128.5t129.5 -326.5q0 -153 -68.5 -285t-197.5 -213.5t-291 -81.5q-202 0 -331.5 128.5t-129.5 326.5zM281 438q0 -130 80.5 -215.5t201.5 -85.5q101 0 185 57t131 151t47 202q0 130 -81 215.5t-202 85.5 q-101 0 -185 -57t-130.5 -151t-46.5 -202zM403 1190q0 79 58.5 144t126.5 65q57 0 130.5 -40.5t145.5 -113.5q65 141 121 141q31 0 48.5 -17t17.5 -42q0 -79 -58.5 -144t-126.5 -65q-57 0 -130.5 40.5t-145.5 113.5q-65 -142 -121 -142q-31 0 -48.5 17.5t-17.5 42.5z" />
<glyph unicode="&#xf6;" horiz-adv-x="1204" d="M94 430q0 153 68.5 285t197.5 213.5t291 81.5q202 0 331.5 -128.5t129.5 -326.5q0 -153 -68.5 -285t-197.5 -213.5t-291 -81.5q-202 0 -331.5 128.5t-129.5 326.5zM281 438q0 -130 80.5 -215.5t201.5 -85.5q101 0 185 57t131 151t47 202q0 130 -81 215.5t-202 85.5 q-101 0 -185 -57t-130.5 -151t-46.5 -202zM412 1217q0 60 35 100.5t94 40.5q58 0 88 -26t30 -72q0 -60 -35 -101t-92 -41q-59 0 -89.5 26t-30.5 73zM786 1217q0 60 35 100.5t94 40.5t90 -26t31 -72q0 -60 -35.5 -101t-93.5 -41q-59 0 -90 26t-31 73z" />
<glyph unicode="&#xf7;" horiz-adv-x="1298" d="M197 528q0 8 4.5 23t9.5 20q11 28 31.5 41t60.5 13h744q45 0 62 -17.5t11 -52.5q0 -29 -14 -43q-11 -28 -31 -40.5t-59 -12.5h-744q-45 0 -63 17.5t-12 51.5zM465 160q0 83 39 119q26 30 92 30q52 0 80.5 -21t28.5 -59q0 -78 -39 -120q-31 -31 -93 -31q-108 0 -108 82z M612 854q0 82 39 121q31 31 92 31q52 0 80.5 -21t28.5 -59q0 -85 -39 -121q-31 -31 -92 -31q-52 0 -80.5 21t-28.5 59z" />
<glyph unicode="&#xf8;" horiz-adv-x="1204" d="M4 8q0 43 53 90l103 90q-66 113 -66 242q0 153 68.5 285t197.5 213.5t291 81.5q169 0 299 -107l164 152q6 4 25 -4.5t37 -29.5t18 -44q0 -44 -53 -92l-97 -88q68 -111 68 -242q0 -153 -68.5 -285t-197.5 -213.5t-291 -81.5q-175 0 -301 107l-170 -154q-6 -4 -25 5 t-37 30.5t-18 44.5zM279 438q0 -74 26 -133l524 475q-82 72 -188 72q-101 0 -185 -57.5t-130.5 -152.5t-46.5 -204zM375 207q77 -74 190 -74q152 0 257.5 124t105.5 290q0 67 -27 133z" />
<glyph unicode="&#xf9;" horiz-adv-x="1212" d="M135 428l117 557h203l-117 -555q-28 -125 20 -201.5t162 -76.5q94 0 162.5 47.5t130.5 148.5l135 637h201l-160 -760q-17 -76 0 -108.5t80 -38.5l1 -5q1 -5 -2 -14t-7 -19t-13.5 -20.5t-22 -18.5t-32.5 -13.5t-45 -5.5q-177 0 -168 182q-58 -90 -143 -139.5t-188 -49.5 q-190 0 -273.5 124.5t-40.5 328.5zM416 1376q0 37 27 62.5t65 25.5q49 0 100 -41q56 -42 111 -109.5t82.5 -117.5t21.5 -59q-8 -10 -60 -1t-130.5 41t-140.5 78q-76 56 -76 121z" />
<glyph unicode="&#xfa;" horiz-adv-x="1212" d="M135 428l117 557h203l-117 -555q-28 -125 20 -201.5t162 -76.5q94 0 162.5 47.5t130.5 148.5l135 637h201l-160 -760q-17 -76 0 -108.5t80 -38.5l1 -5q1 -5 -2 -14t-7 -19t-13.5 -20.5t-22 -18.5t-32.5 -13.5t-45 -5.5q-177 0 -168 182q-58 -90 -143 -139.5t-188 -49.5 q-190 0 -273.5 124.5t-40.5 328.5zM582 1137q-5 9 35 59t110 115t133 102q51 31 101 31q39 0 63.5 -25t24.5 -61q0 -63 -95 -119q-45 -26 -98.5 -47t-98 -33t-86 -20t-62.5 -7t-27 5z" />
<glyph unicode="&#xfb;" horiz-adv-x="1212" d="M135 428l117 557h203l-117 -555q-28 -125 20 -201.5t162 -76.5q94 0 162.5 47.5t130.5 148.5l135 637h201l-160 -760q-17 -76 0 -108.5t80 -38.5l1 -5q1 -5 -2 -14t-7 -19t-13.5 -20.5t-22 -18.5t-32.5 -13.5t-45 -5.5q-177 0 -168 182q-58 -90 -143 -139.5t-188 -49.5 q-190 0 -273.5 124.5t-40.5 328.5zM442 1178q0 69 136 180q63 52 126 91t84 42q15 -3 60 -43t82 -86q84 -103 84 -162q0 -36 -20.5 -58t-51.5 -22q-32 0 -61.5 29.5t-65.5 93.5q-5 9 -23 41t-28 53q-62 -70 -88 -96q-108 -121 -174 -121q-28 0 -44 17t-16 41z" />
<glyph unicode="&#xfc;" horiz-adv-x="1212" d="M135 428l117 557h203l-117 -555q-28 -125 20 -201.5t162 -76.5q94 0 162.5 47.5t130.5 148.5l135 637h201l-160 -760q-17 -76 0 -108.5t80 -38.5l1 -5q1 -5 -2 -14t-7 -19t-13.5 -20.5t-22 -18.5t-32.5 -13.5t-45 -5.5q-177 0 -168 182q-58 -90 -143 -139.5t-188 -49.5 q-190 0 -273.5 124.5t-40.5 328.5zM426 1217q0 60 35 100.5t94 40.5q58 0 88.5 -26t30.5 -72q0 -60 -35 -101t-92 -41q-59 0 -90 26t-31 73zM801 1217q0 60 35 100.5t94 40.5t90 -26t31 -72q0 -60 -35.5 -101t-93.5 -41q-59 0 -90 26t-31 73z" />
<glyph unicode="&#xfd;" horiz-adv-x="1079" d="M-127 -287q0 23 13 45.5t26.5 33.5t17.5 9q18 -21 52.5 -35t60.5 -14q62 0 126.5 55t168.5 207l29 43q-64 11 -76 97l-58 518q-12 106 -48 152t-103 48q-1 0 -1.5 7t2 18t7 24t15 26.5t25 24.5t38 18t53.5 7q174 0 203 -327l41 -467l450 782h203l-604 -1028 q-115 -196 -218 -284.5t-220 -88.5q-119 0 -170 54q-33 29 -33 75zM532 1120q-5 9 35.5 59.5t110.5 115.5t133 102q49 30 100 30q39 0 63.5 -25t24.5 -61q0 -62 -94 -118q-45 -26 -98.5 -47t-98 -33t-86.5 -20.5t-63 -7.5t-27 5z" />
<glyph unicode="&#xfe;" horiz-adv-x="1263" d="M-10 -305l342 1616q12 53 32.5 74.5t59.5 21.5h25q44 0 70 -22.5t16 -73.5l-103 -482q129 181 340 181q166 0 281.5 -114.5t115.5 -315.5q0 -114 -39 -223t-106.5 -194t-168 -136.5t-214.5 -51.5q-120 0 -211 56.5t-137 150.5l-103 -487q-10 -53 -31.5 -74.5t-60.5 -21.5 h-22q-47 0 -72 22.5t-14 73.5zM356 471q-25 -134 50 -232t219 -98q106 0 186 63t119 158t39 203q0 128 -72.5 203.5t-177.5 75.5q-98 0 -185 -55t-143 -146z" />
<glyph unicode="&#xff;" horiz-adv-x="1079" d="M-127 -287q0 23 13 45.5t26.5 33.5t17.5 9q18 -21 52.5 -35t60.5 -14q62 0 126.5 55t168.5 207l29 43q-64 11 -76 97l-58 518q-12 106 -48 152t-103 48q-1 0 -1.5 7t2 18t7 24t15 26.5t25 24.5t38 18t53.5 7q174 0 203 -327l41 -467l450 782h203l-604 -1028 q-115 -196 -218 -284.5t-220 -88.5q-119 0 -170 54q-33 29 -33 75zM354 1217q0 60 35 100.5t94 40.5q58 0 88.5 -26t30.5 -72q0 -60 -35 -101t-92 -41q-59 0 -90 26t-31 73zM729 1217q0 60 35 100.5t94 40.5t90 -26t31 -72q0 -60 -35.5 -101t-93.5 -41q-59 0 -90 26t-31 73z " />
<glyph unicode="&#x152;" horiz-adv-x="2164" d="M150 555q0 166 59.5 315t160 254t236 166.5t283.5 61.5q94 0 190 -27h1039q92 0 92 -59q0 -23 -10.5 -56t-26.5 -49q-20 -22 -82 -22h-727q125 -156 125 -367v-6h364q86 0 86 -55q0 -21 -9 -53t-23 -48q-25 -22 -78 -22h-363q-51 -233 -223 -402h645q92 0 92 -57 q0 -24 -10 -56.5t-26 -49.5q-23 -23 -82 -23h-944q-90 -23 -168 -23q-185 0 -323 77.5t-207.5 207.5t-69.5 293zM365 569q0 -176 107 -291.5t294 -115.5q95 0 186 44.5t162 121.5t114.5 190t43.5 240q0 176 -106.5 291.5t-293.5 115.5q-96 0 -187.5 -44.5t-162 -121.5 t-114 -190t-43.5 -240z" />
<glyph unicode="&#x153;" horiz-adv-x="1961" d="M94 430q0 114 40 219.5t110.5 185t174.5 127.5t224 48q147 0 257 -72t157 -199q80 127 207 199t282 72q172 0 269.5 -74.5t97.5 -198.5q0 -78 -27.5 -134.5t-92 -99t-177 -64t-275.5 -21.5q-85 0 -235 10v-37q0 -120 70.5 -190t201.5 -70q198 0 314 154q3 4 25.5 -2.5 t45.5 -28.5t23 -53q0 -30 -11.5 -52.5t-39.5 -50.5q-123 -123 -361 -123q-144 0 -246.5 62.5t-144.5 167.5q-74 -106 -186 -168t-248 -62q-201 0 -328 126t-127 329zM281 438q0 -130 80.5 -215.5t201.5 -85.5q101 0 185 57t131 151t47 202q0 130 -81 215.5t-202 85.5 q-101 0 -185 -57t-130.5 -151t-46.5 -202zM1139 569q87 -10 184 -10q406 0 406 172q0 53 -51 90t-144 37q-130 0 -237 -81t-158 -208z" />
<glyph unicode="&#x178;" horiz-adv-x="1239" d="M180 1325h221l258 -606l525 622q1 1 14 -1t31.5 -8.5t37 -17t31.5 -31.5t13 -48q0 -53 -72 -133l-502 -565l-112 -537h-213l116 547zM496 1540q0 60 35 100.5t94 40.5q58 0 88 -26t30 -72q0 -60 -35 -100.5t-92 -40.5q-59 0 -89.5 25.5t-30.5 72.5zM870 1540 q0 60 35 100.5t94 40.5t90 -26t31 -72q0 -60 -35 -100.5t-94 -40.5t-90 26t-31 72z" />
<glyph unicode="&#x2c6;" horiz-adv-x="1093" d="M410 1178q0 70 135 180q63 52 126 91t85 42q15 -3 59.5 -42.5t81.5 -86.5q84 -103 84 -162q0 -36 -20.5 -58t-51.5 -22q-32 0 -61.5 29.5t-65.5 93.5q-5 9 -23 41t-28 53q-62 -70 -88 -96q-108 -121 -174 -121q-28 0 -43.5 16.5t-15.5 41.5z" />
<glyph unicode="&#x2dc;" horiz-adv-x="1093" d="M385 1190q0 79 58 144t126 65q57 0 131 -40.5t146 -113.5q65 141 121 141q31 0 48 -17t17 -42q0 -79 -58 -144t-126 -65q-57 0 -131 40.5t-146 113.5q-65 -142 -120 -142q-31 0 -48.5 17.5t-17.5 42.5z" />
<glyph unicode="&#x2000;" horiz-adv-x="915" />
<glyph unicode="&#x2001;" horiz-adv-x="1831" />
<glyph unicode="&#x2002;" horiz-adv-x="915" />
<glyph unicode="&#x2003;" horiz-adv-x="1831" />
<glyph unicode="&#x2004;" horiz-adv-x="610" />
<glyph unicode="&#x2005;" horiz-adv-x="457" />
<glyph unicode="&#x2006;" horiz-adv-x="305" />
<glyph unicode="&#x2007;" horiz-adv-x="305" />
<glyph unicode="&#x2008;" horiz-adv-x="228" />
<glyph unicode="&#x2009;" horiz-adv-x="366" />
<glyph unicode="&#x200a;" horiz-adv-x="101" />
<glyph unicode="&#x2010;" horiz-adv-x="874" d="M98 406q7 30 17 77l6 29l16 80h637q-6 -33 -16 -80l-6 -29l-17 -77h-637z" />
<glyph unicode="&#x2011;" horiz-adv-x="874" d="M98 406q7 30 17 77l6 29l16 80h637q-6 -33 -16 -80l-6 -29l-17 -77h-637z" />
<glyph unicode="&#x2012;" horiz-adv-x="874" d="M98 406q7 30 17 77l6 29l16 80h637q-6 -33 -16 -80l-6 -29l-17 -77h-637z" />
<glyph unicode="&#x2013;" horiz-adv-x="1171" d="M117 467q0 21 9.5 50.5t23.5 45.5q26 23 75 23h750q41 0 63.5 -15t22.5 -41q0 -22 -9.5 -52t-25.5 -46q-20 -20 -76 -20h-747q-86 0 -86 55z" />
<glyph unicode="&#x2014;" horiz-adv-x="1513" d="M117 467q0 21 9.5 50.5t23.5 45.5q26 23 75 23h1090q86 0 86 -56q0 -21 -9.5 -51.5t-23.5 -46.5q-23 -20 -76 -20h-1089q-86 0 -86 55z" />
<glyph unicode="&#x2018;" horiz-adv-x="512" d="M203 932q0 31 12.5 58t44.5 63l252 305q13 9 37 4.5t43.5 -24t11.5 -40.5l-225 -456q-1 -3 -19.5 -4t-44.5 3.5t-51 14t-43 29.5t-18 47z" />
<glyph unicode="&#x2019;" horiz-adv-x="512" d="M166 897l225 457q1 3 19.5 4t44.5 -3.5t51 -14t43 -29.5t18 -47q0 -31 -12.5 -58t-44.5 -63l-252 -305q-13 -9 -37.5 -5t-44 23.5t-10.5 40.5z" />
<glyph unicode="&#x201a;" horiz-adv-x="528" d="M-82 -217l225 459q1 3 19.5 3.5t44.5 -4t51 -14t43 -29.5t18 -48q0 -31 -12.5 -57t-44.5 -64l-252 -305q-13 -9 -37.5 -4.5t-44 24t-10.5 39.5z" />
<glyph unicode="&#x201c;" horiz-adv-x="870" d="M203 936q0 31 12.5 58t44.5 63l256 307q13 9 37 5t43 -23.5t10 -40.5l-233 -459q-1 -3 -19 -4t-43 3.5t-49.5 13.5t-41.5 29t-17 48zM561 932q0 56 55 119l250 305q13 9 37.5 4.5t45 -24t12.5 -40.5l-226 -456q-1 -3 -19.5 -4t-44 4t-50.5 14.5t-42.5 29.5t-17.5 48z" />
<glyph unicode="&#x201d;" horiz-adv-x="870" d="M166 899l225 457q1 3 19.5 4t44 -3.5t50.5 -14t42.5 -30t17.5 -48.5q0 -56 -55 -119l-250 -305q-13 -9 -37.5 -5t-44.5 23.5t-12 40.5zM520 891l234 461q1 3 19 3.5t43 -4t49.5 -14t41.5 -29.5t17 -48q0 -31 -13 -57.5t-45 -63.5l-256 -308q-13 -9 -37 -5t-43 24t-10 41z " />
<glyph unicode="&#x201e;" horiz-adv-x="880" d="M-86 -215l225 457q1 3 19.5 4t44 -4t50.5 -14.5t42.5 -29.5t17.5 -48q0 -53 -55 -119l-250 -305q-13 -9 -37.5 -5t-44.5 23.5t-12 40.5zM268 -223l232 459q2 3 20 4t43 -3.5t50 -14t42 -29.5t17 -48q0 -31 -13 -57t-47 -63l-254 -308q-17 -19 -61.5 5t-28.5 55z" />
<glyph unicode="&#x2022;" horiz-adv-x="753" d="M145 498q0 99 68 168t166 69t165.5 -69t67.5 -168q0 -97 -68 -165.5t-165 -68.5q-98 0 -166 68t-68 166z" />
<glyph unicode="&#x2026;" horiz-adv-x="1435" d="M51 72q0 89 43 129q32 32 99 32q116 0 116 -86q0 -91 -41 -129q-32 -32 -100 -32q-57 0 -87 22.5t-30 63.5zM508 72q0 91 41 129q32 32 100 32q57 0 87 -22.5t30 -63.5q0 -89 -43 -129q-32 -32 -98 -32q-57 0 -87 22.5t-30 63.5zM963 72q0 88 41 129q32 32 100 32 q57 0 87 -22.5t30 -63.5q0 -89 -43 -129q-28 -32 -99 -32q-116 0 -116 86z" />
<glyph unicode="&#x202f;" horiz-adv-x="366" />
<glyph unicode="&#x2039;" horiz-adv-x="714" d="M121 514q2 8 30 38.5t77.5 76.5t99.5 86q170 137 252 137q34 0 52.5 -19t18.5 -49q0 -38 -55.5 -93.5t-142.5 -108.5q-133 -79 -164 -95q70 -50 125 -104q66 -61 92 -96t26 -68q0 -30 -23.5 -51t-59.5 -21q-87 0 -203 154q-52 67 -90 133.5t-35 79.5z" />
<glyph unicode="&#x203a;" horiz-adv-x="714" d="M68 215q0 39 56 94.5t144 108.5q123 73 162 94q-68 50 -125 104q-65 62 -91 97t-26 67q0 30 23.5 51t60.5 21q87 0 203 -154q49 -65 88 -132.5t37 -80.5q-4 -12 -69 -76.5t-140 -123.5q-168 -138 -252 -138q-33 0 -52 19t-19 49z" />
<glyph unicode="&#x205f;" horiz-adv-x="457" />
<glyph unicode="&#x20ac;" horiz-adv-x="1355" d="M96 481q0 20 7.5 43.5t19.5 36.5q25 21 65 21h109q9 55 35 170h-92q-76 0 -76 47q0 20 7.5 43.5t18.5 34.5q20 20 66 20h123q70 181 170 281q174 174 420 174q204 0 325 -121q70 -70 70 -162q0 -31 -12.5 -55t-29.5 -36t-35.5 -20.5t-31 -7.5t-14.5 2q-65 224 -293 224 q-149 0 -256 -107q-58 -58 -108 -172h387q76 0 76 -45q0 -21 -8 -45t-21 -35q-20 -20 -64 -20h-422q-21 -80 -32 -170h403q76 0 76 -47q0 -20 -8.5 -44t-20.5 -36q-21 -21 -63 -21h-391q16 -128 93.5 -206t205.5 -78q96 0 171 43t144 137q4 5 25.5 -5.5t43 -35.5t21.5 -56 q0 -59 -65 -124q-59 -58 -154.5 -96t-194.5 -38q-225 0 -354 123t-141 336h-121q-74 0 -74 47z" />
<glyph unicode="&#x2122;" horiz-adv-x="1476" d="M195 1264v6q0 57 61 57h432q62 0 62 -57v-6q0 -60 -62 -60h-147v-450q0 -66 -62 -66h-18q-55 0 -55 66v450h-150q-61 0 -61 60zM846 754v510q0 69 63 69h56q30 0 44 -10.5t23 -36.5l123 -301l123 301q12 27 27 37t43 10h51q61 0 61 -69v-510q0 -66 -55 -66h-19 q-55 0 -55 66v387l-112 -289q-4 -12 -7 -17t-17.5 -10.5t-41.5 -5.5q-26 0 -39 5t-15.5 9.5t-6.5 18.5l-117 287v-385q0 -66 -51 -66h-23q-55 0 -55 66z" />
<glyph unicode="&#xe000;" horiz-adv-x="1003" d="M0 0v1004h1004v-1004h-1004z" />
</font>
</defs>
</svg>
